<svg width="70" height="70" viewBox="0 0 70 70" fill="none" xmlns="http://www.w3.org/2000/svg">
<path d="M35.0013 64.1654C46.668 52.4987 58.3346 42.052 58.3346 29.1654C58.3346 16.2787 47.8879 5.83203 35.0013 5.83203C22.1147 5.83203 11.668 16.2787 11.668 29.1654C11.668 42.052 23.3346 52.4987 35.0013 64.1654Z" fill="#51CC4B" stroke="white" stroke-width="2.44186" stroke-linecap="round" stroke-linejoin="round"/>
<path d="M47.833 41.2405H47.7885H47.7441H47.6996H47.6551H47.6106H47.5661H47.5217H47.4772H47.4327H47.3882H47.3437H47.2992H47.2548H47.2103H47.1658H47.1213H47.0768H47.0323H46.9879H46.9434H46.8989H46.8544H46.8099H46.7655H46.721H46.6765H46.632H46.5875H46.543H46.4986H46.4541H46.4096H46.3651H46.3206H46.2762H46.2317H46.1872H46.1427H46.0982H46.0537H46.0093H45.9648H45.9203H45.8758H45.8313H45.7869H45.7424H45.6979H45.6534H45.6089H45.5644H45.52H45.4755H45.431H45.3865H45.342H45.2976H45.2531H45.2086H45.1641H45.1196H45.0751H45.0307H44.9862H44.9417H44.8972H44.8527H44.8083H44.7638H44.7193H44.6748H44.6303H44.5858H44.5414H44.4969H44.4524H44.4079H44.3634H44.319H44.2745H44.23H44.1855H44.141H44.0965H44.0521H44.0076H43.9631H43.9186H43.8741H43.8297H43.7852H43.7407H43.6962H43.6517H43.6072H43.5628H43.5183H43.4738H43.4293H43.3848H43.3404H43.2959H43.2514H43.2069H43.1624H43.1179H43.0735H43.029H42.9845H42.94H42.8955H42.8511H42.8066H42.7621H42.7176H42.6731H42.6286H42.5842H42.5397H42.4952H42.4507H42.4062H42.3618H42.3173H42.2728H42.2283H42.1838H42.1393H42.0949H42.0504H42.0059H41.9614H41.9169H41.8725H41.828H41.7835H41.739H41.6945H41.65H41.6056H41.5611H41.5166H41.4721H41.4276H41.3832H41.3387H41.2942H41.2497H41.2052H41.1607H41.1163H41.0718H41.0273H40.9828H40.9383H40.8939H40.8494H40.8049H40.7604H40.7159H40.6714H40.627H40.5825H40.538H40.4935H40.449H40.4046H40.3601H40.3156H40.2711H40.2266H40.1821H40.1377H40.0932H40.0487H40.0042H39.9597H39.9152H39.8708H39.8263H39.7818H39.7373H39.6928H39.6484H39.6039H39.5594H39.5149H39.4704H39.4259H39.3815H39.337H39.2925H39.248H39.2035H39.1591H39.1146H39.0701H39.0256H38.9811H38.9366H38.8922H38.8477H38.8032H38.7587H38.7142H38.6698H38.6253H38.5808H38.5363H38.4918H38.4473H38.4029H38.3584H38.3139H38.2694H38.2249H38.1805H38.136H38.0915H38.047H38.0025H37.958H37.9136H37.8691H37.8246H37.7801H37.7356H37.6912H37.6467H37.6022H37.5577H37.5132H37.4687H37.4243H37.3798H37.3353H37.2908H37.2463H37.2019H37.1574H37.1129H37.0684H37.0239H36.9794H36.935H36.8905H36.846H36.8015H36.757H36.7126H36.6681H36.6236H36.5791H36.5346H36.4901H36.4457H36.4012H36.3567H36.3122H36.2677H36.2233H36.1788H36.1343H36.0898H36.0453H36.0008H35.9564H35.9119H35.8674H35.8229H35.7784H35.734H35.6895H35.645H35.6005H35.556H35.5115H35.4671H35.4226H35.3781H35.3336H35.2891H35.2447H35.2002H35.1557H35.1112H35.0667H35.0222H34.9778H34.9333H34.8888H34.8443H34.7998H34.7554H34.7109H34.6664H34.6219H34.5774H34.5329H34.4885H34.444H34.3995H34.355H34.3105H34.2661H34.2216H34.1771H34.1326H34.0881H34.0436H33.9992H33.9547H33.9102H33.8657H33.8212H33.7768H33.7323H33.6878H33.6433H33.5988H33.5543H33.5099H33.4654H33.4209H33.3764H33.3319H33.2875H33.243H33.1985H33.154H33.1095H33.065H33.0206H32.9761H32.9316H32.8871H32.8426H32.7982H32.7537H32.7092H32.6647H32.6202H32.5757H32.5313H32.4868H32.4423H32.3978H32.3533H32.3088H32.2644H32.2199H32.1754H32.1309H32.0864H32.042H31.9975H31.953H31.9085H31.864H31.8195H31.7751H31.7306H31.6861H31.6416H31.5971H31.5527H31.5082H31.4637H31.4192H31.3747H31.3302H31.2858H31.2413H31.1968H31.1523H31.1078H31.0634H31.0189H30.9744H30.9299H30.8854H30.8409H30.7965H30.752H30.7075H30.663H30.6185H30.5741H30.5296H30.4851H30.4406H30.3961H30.3516H30.3072H30.2627H30.2182H30.1737H30.1292H30.0848H30.0403H29.9958H29.9513H29.9068H29.8623H29.8179H29.7734H29.7289H29.6844H29.6399H29.5955H29.551H29.5065H29.462H29.4175H29.373H29.3286H29.2841H29.2396H29.1951H29.1506H29.1062H29.0617H29.0172H28.9727H28.9282H28.8837H28.8393H28.7948H28.7503H28.7058H28.6613H28.6169H28.5724H28.5279H28.4834H28.4389H28.3944H28.35H28.3055H28.261H28.2165H28.172H28.1276H28.0831H28.0386H27.9941H27.9496H27.9051H27.8607H27.8162H27.7717H27.7272H27.6827H27.6383H27.5938H27.5493H27.5048H27.4603H27.4158H27.3714H27.3269H27.2824H27.2379H27.1934H27.149H27.1045H27.06H27.0155H26.971H26.9265H26.8821H26.8376H26.7931H26.7486H26.7041H26.6597H26.6152H26.5707H26.5262H26.4817H26.4372H26.3928H26.3483H26.3038H26.2593H26.2148H26.1704H26.1259H26.0814H26.0369H25.9924H25.9479H25.9035H25.859H25.8145H25.77H25.7255H25.6811H25.6366H25.5921H25.5476H25.5031H25.4586H25.4142H25.3697H25.3252H25.2807H25.2362H25.1918H25.1473H25.1028H25.0583H25.0138H24.9693H24.9249H24.8804H24.8359H24.7914H24.7469H24.7024H24.658H24.6135H24.569H24.5245H24.48H24.4356H24.3911H24.3466H24.3021H24.2576H24.2131H24.1687H24.1242H24.0797H24.0352H23.9907H23.9463H23.9018H23.8573H23.8128H23.7683H23.7238H23.6794H23.6349H23.5904H23.5459H23.5014H23.457H23.4125H23.368H23.3235H23.279H23.2345H23.1901H23.1456H23.1011H23.0566H23.0121H22.9677H22.9232H22.8787H22.8342H22.7897H22.7452H22.7008H22.6563H22.6118H22.5673H22.5228H22.4784H22.4339H22.3894H22.3449H22.3004H22.2559H22.2115H22.167H22.1225H22.078L22.0337 41.1962L22.0335 41.196H21.9891H21.9446H21.9001H21.8556L21.8113 41.1517L21.8111 41.1516H21.7666H21.7222L21.6778 41.1072L21.6777 41.1071H21.6332L21.5889 41.0627L21.5887 41.0626H21.5442L21.4999 41.0182L21.4998 41.0181L21.4554 40.9738L21.4553 40.9736H21.4108L21.3664 40.9293L21.3663 40.9291L21.322 40.8848L21.3218 40.8847L21.2775 40.8403L21.2773 40.8402H21.2329L21.1885 40.7958L21.1884 40.7957L21.144 40.7514L21.1439 40.7512L21.0996 40.7069V40.6624L21.0994 40.6622L21.0551 40.6179L21.0549 40.6178L21.0106 40.5734L21.0105 40.5733L20.9661 40.5289L20.966 40.5288L20.9216 40.4845V40.44L20.9215 40.4398L20.8771 40.3955V40.351L20.877 40.3509L20.8327 40.3065V40.2621L20.8325 40.2619L20.7882 40.2176V40.1731V40.1286L20.788 40.1285L20.7437 40.0841V40.0396V39.9952V39.9507L20.7436 39.9505L20.6992 39.9062V39.8617V39.8172V39.7727V39.7283V39.6838V39.6393V39.5948V39.5503V39.5059V39.4614V39.4169V39.3724V39.3279V39.2834V39.239V39.1945V39.15V39.1055V39.061V39.0166V38.9721V38.9276V38.8831V38.8386V38.7941V38.7497V38.7052V38.6607V38.6162V38.5717V38.5273V38.4828V38.4383V38.3938V38.3493V38.3048V38.2604V38.2159V38.1714V38.1269V38.0824V38.038V37.9935V37.949V37.9045V37.86V37.8155V37.7711V37.7266V37.6821V37.6376V37.5931V37.5487V37.5042V37.4597V37.4152V37.3707V37.3262V37.2818V37.2373V37.1928V37.1483V37.1038V37.0594V37.0149V36.9704V36.9259V36.8814V36.8369V36.7925V36.748V36.7035V36.659V36.6145V36.5701V36.5256V36.4811V36.4366V36.3921V36.3476V36.3032V36.2587V36.2142V36.1697V36.1252V36.0808V36.0363V35.9918V35.9473V35.9028V35.8583V35.8139V35.7694V35.7249V35.6804V35.6359V35.5915V35.547V35.5025V35.458V35.4135V35.369V35.3246V35.2801V35.2356V35.1911V35.1466V35.1022V35.0577V35.0132V34.9687V34.9242V34.8797V34.8353V34.7908V34.7463V34.7018V34.6573V34.6129V34.5684V34.5239V34.4794V34.4349V34.3904V34.346V34.3015V34.257V34.2125V34.168V34.1236V34.0791V34.0346V33.9901V33.9456V33.9011V33.8567V33.8122V33.7677V33.7232V33.6787V33.6342V33.5898V33.5453V33.5008V33.4563V33.4118V33.3674V33.3229V33.2784V33.2339V33.1894V33.1449V33.1005V33.056L20.7436 33.0116H20.788H20.8325H20.877H20.9215H20.966H21.0105H21.0549H21.0994H21.1439H21.1884H21.2329H21.2773H21.3218H21.3663H21.4108H21.4553H21.4998H21.5442H21.5887H21.6332H21.6777H21.7222H21.7666H21.8111H21.8556H21.9001H21.9446H21.9891H22.0335H22.078H22.1225H22.167H22.2115H22.2559H22.3004H22.3449H22.3894H22.4339H22.4784H22.5228H22.5673H22.6118H22.6563H22.7008H22.7452H22.7897H22.8342H22.8787H22.9232H22.9677H23.0121H23.0566H23.1011H23.1456H23.1901H23.2345H23.279H23.3235H23.368H23.4125H23.457H23.5014H23.5459H23.5904H23.6349H23.6794H23.7238H23.7683H23.8128H23.8573H23.9018H23.9463H23.9907H24.0352H24.0797H24.1242H24.1687H24.2131H24.2576H24.3021H24.3466H24.3911H24.4356H24.48H24.5245H24.569H24.6135H24.658H24.7024H24.7469H24.7914H24.8359H24.8804H24.9249H24.9693H25.0138H25.0583H25.1028H25.1473H25.1918H25.2362H25.2807H25.3252H25.3697H25.4142H25.4586H25.5031H25.5476H25.5921H25.6366H25.6811H25.7255H25.77H25.8145H25.859H25.9035H25.9479H25.9924H26.0369H26.0814H26.1259H26.1704H26.2148H26.2593H26.3038H26.3483H26.3928H26.4372H26.4817H26.5262H26.5707H26.6152H26.6597H26.7041H26.7486H26.7931H26.8376L26.8819 33.056L26.8821 33.0561H26.9265H26.971H27.0155H27.06H27.1045L27.1488 33.1005L27.149 33.1006H27.1934H27.2379H27.2824L27.3267 33.1449L27.3269 33.1451H27.3714L27.4157 33.1894L27.4158 33.1896H27.4603H27.5048L27.5492 33.2339L27.5493 33.2341L27.5936 33.2784L27.5938 33.2785H27.6383L27.6826 33.3229L27.6827 33.323L27.7271 33.3674L27.7272 33.3675H27.7717L27.816 33.4118L27.8162 33.412L27.8605 33.4563L27.8607 33.4565L27.905 33.5008L27.9051 33.5009L27.9495 33.5453L27.9496 33.5454L27.994 33.5898L27.9941 33.5899L28.0385 33.6342L28.0386 33.6344L28.0829 33.6787L28.0831 33.6789L28.1274 33.7232L28.1276 33.7234L28.1719 33.7677L28.172 33.7678L28.2164 33.8122V33.8567L28.2165 33.8568L28.2609 33.9011L28.261 33.9013L28.3053 33.9456L28.3055 33.9458L28.3498 33.9901V34.0346L28.35 34.0347L28.3943 34.0791V34.1236L28.3944 34.1237L28.4388 34.168L28.4389 34.1682L28.4833 34.2125V34.257L28.4834 34.2571L28.5278 34.3015V34.346L28.5279 34.3461L28.5722 34.3904V34.4349V34.4794L28.5724 34.4795L28.6167 34.5239V34.5684L28.6169 34.5685L28.6612 34.6129V34.6573V34.7018L28.6613 34.702L28.7057 34.7463V34.7908V34.8353L28.7058 34.8354L28.7502 34.8797V34.9242L28.7503 34.9244L28.7946 34.9687V35.0132V35.0577L28.7948 35.0578L28.8391 35.1022V35.1466V35.1911L28.8393 35.1913L28.8836 35.2356V35.2801L28.8837 35.2802L28.9281 35.3246V35.369V35.4135L28.9282 35.4137L28.9726 35.458V35.5025V35.547L28.9727 35.5471L29.0171 35.5915V35.6359L29.0172 35.6361L29.0615 35.6804V35.7249V35.7694L29.0617 35.7695L29.106 35.8139V35.8583L29.1062 35.8585L29.1505 35.9028V35.9473V35.9918L29.1506 35.9919L29.195 36.0363V36.0808L29.1951 36.0809L29.2395 36.1252V36.1697L29.2396 36.1699L29.2839 36.2142L29.2841 36.2143L29.3284 36.2587V36.3032L29.3286 36.3033L29.3729 36.3476L29.373 36.3478L29.4174 36.3921L29.4175 36.3923L29.4619 36.4366L29.462 36.4367L29.5064 36.4811L29.5065 36.4812L29.5508 36.5256L29.551 36.5257L29.5953 36.5701L29.5955 36.5702H29.6399L29.6843 36.6145L29.6844 36.6147L29.7288 36.659L29.7289 36.6592H29.7734L29.8177 36.7035L29.8179 36.7036H29.8623L29.9067 36.748L29.9068 36.7481H29.9513H29.9958L30.0401 36.7925L30.0403 36.7926H30.0848H30.1292L30.1736 36.8369L30.1737 36.8371H30.2182H30.2627H30.3072H30.3516L30.396 36.8814L30.3961 36.8816H30.4406H30.4851H30.5296H30.5741H30.6185H30.663H30.7075H30.752H30.7965H30.8409H30.8854H30.9299H30.9744H31.0189H31.0634H31.1078H31.1523H31.1968H31.2413H31.2858H31.3302H31.3747H31.4192H31.4637H31.5082H31.5527H31.5971H31.6416H31.6861H31.7306H31.7751H31.8195H31.864H31.9085H31.953H31.9975H32.042H32.0864H32.1309H32.1754H32.2199H32.2644H32.3088H32.3533H32.3978H32.4423H32.4868H32.5313H32.5757H32.6202H32.6647H32.7092H32.7537H32.7982H32.8426H32.8871H32.9316H32.9761H33.0206H33.065H33.1095H33.154H33.1985H33.243H33.2875H33.3319H33.3764H33.4209H33.4654H33.5099H33.5543H33.5988H33.6433H33.6878H33.7323H33.7768H33.8212H33.8657H33.9102H33.9547H33.9992H34.0436H34.0881H34.1326H34.1771H34.2216H34.2661H34.3105H34.355H34.3995H34.444H34.4885H34.5329H34.5774H34.6219H34.6664H34.7109H34.7554H34.7998H34.8443H34.8888H34.9333H34.9778H35.0222H35.0667H35.1112H35.1557H35.2002H35.2447H35.2891H35.3336L35.3338 36.8814L35.3781 36.8371H35.4226H35.4671H35.5115H35.556H35.6005L35.6006 36.8369L35.645 36.7926H35.6895H35.734H35.7784L35.7786 36.7925L35.8229 36.7481H35.8674L35.8675 36.748L35.9119 36.7036H35.9564L35.9565 36.7035L36.0008 36.6592H36.0453L36.0455 36.659L36.0898 36.6147H36.1343L36.1344 36.6145L36.1788 36.5702H36.2233L36.2234 36.5701L36.2677 36.5257L36.2679 36.5256L36.3122 36.4812L36.3124 36.4811L36.3567 36.4367H36.4012L36.4013 36.4366L36.4457 36.3923L36.4458 36.3921L36.4901 36.3478L36.4903 36.3476L36.5346 36.3033L36.5348 36.3032L36.5791 36.2588L36.5792 36.2587L36.6236 36.2143L36.6237 36.2142V36.1697L36.6681 36.1254L36.6682 36.1252L36.7126 36.0809L36.7127 36.0808V36.0363L36.757 35.9919L36.7572 35.9918L36.8015 35.9474L36.8017 35.9473V35.9028V35.8583L36.846 35.814L36.8461 35.8139V35.7694L36.8905 35.725L36.8906 35.7249V35.6804V35.6359L36.935 35.5916L36.9351 35.5915V35.547V35.5025L36.9794 35.4581L36.9796 35.458V35.4135V35.369L37.0239 35.3247L37.0241 35.3246V35.2801V35.2356L37.0684 35.1913L37.0685 35.1911V35.1466V35.1022L37.1129 35.0578L37.113 35.0577V35.0132V34.9687L37.1574 34.9244L37.1575 34.9242V34.8797V34.8353L37.2019 34.7909L37.202 34.7908V34.7463L37.2463 34.702L37.2465 34.7018V34.6573V34.6129L37.2908 34.5685L37.291 34.5684V34.5239V34.4794L37.3353 34.4351L37.3354 34.4349V34.3904V34.346L37.3798 34.3016L37.3799 34.3015V34.257V34.2125L37.4243 34.1682L37.4244 34.168V34.1236V34.0791L37.4687 34.0347L37.4689 34.0346V33.9901V33.9456L37.5132 33.9013L37.5134 33.9011V33.8567L37.5577 33.8123L37.5578 33.8122V33.7677V33.7232L37.6022 33.6789L37.6023 33.6787V33.6342V33.5898L37.6467 33.5454L37.6468 33.5453V33.5008V33.4563L37.6912 33.412L37.6913 33.4118V33.3674V33.3229L37.7356 33.2785L37.7358 33.2784V33.2339L37.7801 33.1896L37.7803 33.1894V33.1449V33.1005L37.8246 33.0561L37.8247 33.056V33.0115V32.967L37.8691 32.9227L37.8692 32.9225V32.8781V32.8336L37.9136 32.7892L37.9137 32.7891V32.7446V32.7001L37.958 32.6558L37.9582 32.6556V32.6112V32.5667L38.0025 32.5223L38.0027 32.5222V32.4777V32.4332L38.047 32.3889L38.0471 32.3888V32.3443V32.2998L38.0915 32.2555L38.0916 32.2553V32.2108L38.136 32.1665L38.1361 32.1663V32.1219V32.0774L38.1805 32.033L38.1806 32.0329V31.9884V31.9439L38.2249 31.8996L38.2251 31.8995V31.855V31.8105L38.2694 31.7661L38.2696 31.766V31.7215V31.677L38.3139 31.6327L38.314 31.6326V31.5881V31.5436L38.3584 31.4993L38.3585 31.4991V31.4546V31.4102L38.4029 31.3658L38.403 31.3657V31.3212V31.2767L38.4473 31.2324L38.4475 31.2322V31.1877V31.1433L38.4918 31.0989L38.492 31.0988V31.0543V31.0098L38.5363 30.9655L38.5364 30.9653V30.9209L38.5808 30.8765L38.5809 30.8764V30.8319V30.7874L38.6253 30.7431L38.6254 30.7429V30.6984V30.654L38.6698 30.6096L38.6699 30.6095V30.565V30.5205L38.7142 30.4762L38.7144 30.476V30.4316V30.3871L38.7587 30.3427L38.7589 30.3426V30.2981V30.2536L38.8032 30.2093L38.8033 30.2091V30.1647V30.1202L38.8477 30.0758L38.8478 30.0757V30.0312L38.8922 29.9869L38.8923 29.9867V29.9423V29.8978L38.9366 29.8534L38.9368 29.8533V29.8088V29.7643L38.9811 29.72L38.9813 29.7198V29.6754V29.6309L39.0256 29.5865L39.0258 29.5864V29.5419V29.4974L39.0701 29.4531L39.0702 29.453V29.4085V29.364L39.1146 29.3196L39.1147 29.3195V29.275V29.2305L39.1591 29.1862L39.1592 29.1861V29.1416L39.2035 29.0972L39.2037 29.0971V29.0526V29.0081L39.248 28.9638L39.2482 28.9637V28.9192V28.8747L39.2925 28.8303L39.2926 28.8302V28.7857V28.7412L39.337 28.6969L39.3371 28.6968V28.6523V28.6078L39.3815 28.5635L39.3816 28.5633V28.5188L39.4259 28.4745L39.4261 28.4744V28.4299V28.3854L39.4704 28.341L39.4706 28.3409V28.2964V28.2519L39.5149 28.2076L39.5151 28.2075V28.163L39.5594 28.1186L39.5595 28.1185V28.074L39.6039 28.0297L39.604 28.0295L39.6484 27.9852L39.6485 27.9851L39.6928 27.9407L39.693 27.9406V27.8961L39.7373 27.8517L39.7375 27.8516L39.7818 27.8073L39.7819 27.8071L39.8263 27.7628L39.8264 27.7626L39.8708 27.7183L39.8709 27.7182L39.9152 27.6738H39.9597L39.9599 27.6737L40.0042 27.6293L40.0044 27.6292L40.0487 27.5849H40.0932L40.0933 27.5847L40.1377 27.5404H40.1821L40.1823 27.5402L40.2266 27.4959H40.2711H40.3156L40.3157 27.4958L40.3601 27.4514H40.4046L40.4047 27.4513L40.449 27.4069H40.4935L40.4937 27.4068L40.538 27.3624H40.5825H40.627L40.6271 27.3623L40.6714 27.318H40.7159L40.7161 27.3178L40.7604 27.2735H40.8049L40.805 27.2733L40.8494 27.229H40.8939H40.9383L40.9385 27.2289L40.9828 27.1845H41.0273L41.0274 27.1844L41.0718 27.14H41.1163L41.1164 27.1399L41.1607 27.0956H41.2052H41.2497L41.2498 27.0954L41.2942 27.0511H41.3387L41.3388 27.0509L41.3832 27.0066H41.4276L41.4278 27.0064L41.4721 26.9621H41.5166H41.5611L41.5612 26.962L41.6056 26.9176H41.65L41.6502 26.9175L41.6945 26.8731H41.739L41.7391 26.873L41.7835 26.8287H41.828H41.8725L41.8726 26.8285L41.9169 26.7842H41.9614L41.9616 26.784L42.0059 26.7397H42.0504H42.0949L42.095 26.7396L42.1393 26.6952H42.1838L42.184 26.6951L42.2283 26.6507H42.2728H42.3173L42.3174 26.6506L42.3618 26.6063H42.4062L42.4064 26.6061L42.4507 26.5618H42.4952L42.4953 26.5616L42.5397 26.5173H42.5842H42.6286L42.6288 26.5171L42.6731 26.4728H42.7176L42.7177 26.4727L42.7621 26.4283H42.8066H42.8511L42.8512 26.4282L42.8955 26.3838H42.94L42.9402 26.3837L42.9845 26.3394H43.029H43.0735L43.0736 26.3392L43.1179 26.2949H43.1624H43.2069L43.207 26.2947L43.2514 26.2504H43.2959L43.296 26.2503L43.3404 26.2059H43.3848L43.385 26.2058L43.4293 26.1614H43.4738L43.4739 26.1613L43.5183 26.117H43.5628L43.5629 26.1168L43.6072 26.0725L43.6074 26.0723L43.6517 26.028L43.6519 26.0278L43.6962 25.9835L43.6963 25.9834L43.7407 25.939L43.7408 25.9389L43.7852 25.8945L43.7853 25.8944V25.8499L43.8297 25.8056L43.8298 25.8054V25.761L43.8741 25.7166L43.8743 25.7165V25.672V25.6275L43.9186 25.5832L43.9188 25.583V25.5385L43.9631 25.4942L43.9632 25.4941V25.4496V25.4051L44.0076 25.3608L44.0077 25.3606V25.3161L44.0521 25.2718L44.0522 25.2717V25.2272V25.1827L44.0965 25.1383L44.0967 25.1382V25.0937V25.0492L44.141 25.0049L44.1412 25.0048V24.9603L44.1855 24.9159L44.1856 24.9158V24.8713V24.8268L44.23 24.7825L44.2301 24.7824V24.7379V24.6934L44.2745 24.649L44.2746 24.6489V24.6044L44.319 24.5601L44.3191 24.5599V24.5155V24.471L44.3634 24.4266L44.3636 24.4265V24.382L44.4079 24.3377L44.4081 24.3375V24.2931V24.2486L44.4524 24.2042L44.4525 24.2041V24.1596L44.4969 24.1153L44.497 24.1151V24.0706V24.0262L44.5414 23.9818L44.5415 23.9817V23.9372V23.8927L44.5858 23.8484L44.586 23.8482V23.8038L44.6303 23.7594L44.6305 23.7593V23.7148V23.6703L44.6748 23.626L44.6749 23.6258V23.5813L44.7193 23.537L44.7194 23.5369V23.4924V23.4479L44.7638 23.4036L44.7639 23.4034V23.3589L44.8083 23.3146L44.8084 23.3145V23.27V23.2255L44.8527 23.1811L44.8529 23.181V23.1365L44.8972 23.0922L44.8974 23.092V23.0476V23.0031L44.9417 22.9587L44.9418 22.9586V22.9141L44.9862 22.8698L44.9863 22.8696V22.8252V22.7807L45.0307 22.7363L45.0308 22.7362V22.6917L45.0751 22.6474L45.0753 22.6472V22.6027V22.5583L45.1196 22.5139L45.1198 22.5138V22.4693L45.1641 22.425L45.1642 22.4248V22.3803V22.3359L45.2086 22.2915L45.2087 22.2914V22.2469V22.2024L45.2531 22.1581L45.2532 22.1579V22.1134L45.2976 22.0691L45.2977 22.069V22.0245V21.98L45.342 21.9357L45.3422 21.9355V21.891V21.8466L45.3865 21.8022L45.3867 21.8021V21.7576L45.431 21.7132L45.4311 21.7131V21.6686V21.6241L45.4755 21.5798L45.4756 21.5797V21.5352V21.4907L45.52 21.4464L45.5201 21.4462V21.4017V21.3573L45.5644 21.3129L45.5646 21.3128V21.2683L45.6089 21.2239L45.6091 21.2238V21.1793V21.1348L45.6534 21.0905L45.6535 21.0904V21.0459L45.6979 21.0015L45.698 21.0014V20.9569V20.9124L45.7424 20.8681L45.7425 20.868V20.8235L45.7869 20.7791L45.787 20.779V20.7345V20.69L45.8313 20.6457L45.8315 20.6455V20.6011L45.8758 20.5567L45.876 20.5566V20.5121V20.4676L45.9203 20.4233L45.9204 20.4231V20.3786L45.9648 20.3343L45.9649 20.3342V20.2897V20.2452L46.0093 20.2009L46.0094 20.2007V20.1562V20.1118L46.0537 20.0674L46.0539 20.0673V20.0228L46.0982 19.9785L46.0984 19.9783V19.9338V19.8893L46.1427 19.845L46.1429 19.8449V19.8004L46.1872 19.756L46.1873 19.7559V19.7114V19.6669L46.2317 19.6226L46.2318 19.6225V19.578L46.2762 19.5336L46.2763 19.5335V19.489V19.4445L46.3206 19.4002L46.3208 19.4V19.3556L46.3651 19.3112L46.3653 19.3111V19.2666L46.4096 19.2223L46.4097 19.2221V19.1776L46.4541 19.1333L46.4542 19.1332L46.4986 19.0888L46.4987 19.0887L46.543 19.0443L46.5432 19.0442L46.5875 18.9998L46.5877 18.9997L46.632 18.9554L46.6322 18.9552L46.6765 18.9109L46.6766 18.9107L46.721 18.8664L46.7211 18.8663L46.7655 18.8219H46.8099L46.8101 18.8218L46.8544 18.7774H46.8989L46.899 18.7773L46.9434 18.733H46.9879H47.0323L47.0325 18.7328L47.0768 18.6885H47.1213H47.1658H47.2103H47.2548H47.2992H47.3437H47.3882H47.4327H47.4772H47.5217H47.5661H47.6106H47.6551H47.6996H47.7441H47.7885H47.833H47.8775H47.922H47.9665H48.011H48.0554H48.0999H48.1444H48.1889H48.2334H48.2778H48.3223H48.3668H48.4113H48.4558H48.5003H48.5447H48.5892H48.6337H48.6782H48.7227H48.7671H48.8116H48.8561H48.9006H48.9451H48.9896H49.034H49.0785H49.123L49.1673 18.7328V18.7773V18.8218V18.8663V18.9107V18.9552V18.9997V19.0442V19.0887V19.1332V19.1776V19.2221V19.2666V19.3111V19.3556V19.4V19.4445V19.489V19.5335V19.578V19.6225V19.6669V19.7114V19.7559V19.8004V19.8449V19.8893V19.9338V19.9783V20.0228V20.0673V20.1118V20.1562V20.2007V20.2452V20.2897V20.3342V20.3786V20.4231V20.4676V20.5121V20.5566V20.6011V20.6455L49.123 20.6899H49.0785H49.034H48.9896H48.9451H48.9006H48.8561H48.8116H48.7671H48.7227H48.6782H48.6337H48.5892H48.5447H48.5003H48.4558H48.4113H48.3668H48.3223H48.2778H48.2334H48.1889H48.1444H48.0999H48.0554H48.011H47.9665H47.922H47.8775L47.8774 20.69L47.833 20.7344L47.8329 20.7345L47.7885 20.7788L47.7884 20.779V20.8235L47.7441 20.8678L47.7439 20.868V20.9124V20.9569L47.6996 21.0013L47.6994 21.0014V21.0459L47.6551 21.0902L47.655 21.0904V21.1348V21.1793L47.6106 21.2237L47.6105 21.2238V21.2683L47.5661 21.3126L47.566 21.3128V21.3573V21.4017L47.5217 21.4461L47.5215 21.4462V21.4907V21.5352L47.4772 21.5795L47.477 21.5797V21.6241V21.6686L47.4327 21.713L47.4325 21.7131V21.7576L47.3882 21.8019L47.3881 21.8021V21.8466V21.891L47.3437 21.9354L47.3436 21.9355V21.98V22.0245L47.2992 22.0688L47.2991 22.069V22.1134L47.2548 22.1578L47.2546 22.1579V22.2024V22.2469L47.2103 22.2912L47.2101 22.2914V22.3359L47.1658 22.3802L47.1657 22.3803V22.4248V22.4693L47.1213 22.5136L47.1212 22.5138V22.5583V22.6027L47.0768 22.6471L47.0767 22.6472V22.6917L47.0323 22.7361L47.0322 22.7362V22.7807V22.8252L46.9879 22.8695L46.9877 22.8696V22.9141V22.9586L46.9434 23.0029L46.9432 23.0031V23.0476L46.8989 23.0919L46.8988 23.092V23.1365V23.181L46.8544 23.2254L46.8543 23.2255V23.27L46.8099 23.3143L46.8098 23.3145V23.3589V23.4034L46.7655 23.4478L46.7653 23.4479V23.4924V23.5369L46.721 23.5812L46.7208 23.5813V23.6258L46.6765 23.6702L46.6764 23.6703V23.7148V23.7593L46.632 23.8036L46.6319 23.8038V23.8482V23.8927L46.5875 23.9371L46.5874 23.9372V23.9817L46.543 24.026L46.5429 24.0262V24.0706V24.1151L46.4986 24.1595L46.4984 24.1596V24.2041V24.2486L46.4541 24.2929L46.4539 24.2931V24.3375L46.4096 24.3819L46.4095 24.382V24.4265V24.471L46.3651 24.5153L46.365 24.5155V24.5599V24.6044L46.3206 24.6488L46.3205 24.6489V24.6934L46.2762 24.7377L46.276 24.7379V24.7824V24.8268L46.2317 24.8712L46.2315 24.8713V24.9158V24.9603L46.1872 25.0046L46.1871 25.0048V25.0492L46.1427 25.0936L46.1426 25.0937V25.1382V25.1827L46.0982 25.227L46.0981 25.2272V25.2717V25.3161L46.0537 25.3605L46.0536 25.3606V25.4051L46.0093 25.4494L46.0091 25.4496V25.4941V25.5385L45.9648 25.5829L45.9646 25.583V25.6275L45.9203 25.6719L45.9202 25.672V25.7165V25.761L45.8758 25.8053L45.8757 25.8054V25.8499V25.8944L45.8313 25.9387L45.8312 25.9389V25.9834L45.7869 26.0277L45.7867 26.0278V26.0723V26.1168L45.7424 26.1612L45.7422 26.1613V26.2058V26.2503L45.6979 26.2946L45.6978 26.2947V26.3392L45.6534 26.3836L45.6533 26.3837V26.4282V26.4727L45.6089 26.517L45.6088 26.5171V26.5616V26.6061L45.5644 26.6505L45.5643 26.6506V26.6951L45.52 26.7394L45.5198 26.7396V26.784V26.8285L45.4755 26.8729L45.4753 26.873V26.9175L45.431 26.9618L45.4309 26.962V27.0064V27.0509L45.3865 27.0953L45.3864 27.0954V27.1399V27.1844L45.342 27.2287L45.3419 27.2289V27.2733L45.2976 27.3177L45.2974 27.3178V27.3623L45.2531 27.4066L45.2529 27.4068L45.2086 27.4511L45.2085 27.4513V27.4958L45.1641 27.5401L45.164 27.5402L45.1196 27.5846L45.1195 27.5847L45.0751 27.6291L45.075 27.6292L45.0307 27.6735L45.0305 27.6737L44.9862 27.718L44.986 27.7182L44.9417 27.7625L44.9416 27.7626L44.8972 27.807H44.8527L44.8526 27.8071L44.8083 27.8515L44.8081 27.8516L44.7638 27.8959H44.7193L44.7192 27.8961L44.6748 27.9404H44.6303L44.6302 27.9406L44.5858 27.9849H44.5414L44.5412 27.9851L44.4969 28.0294H44.4524L44.4523 28.0295L44.4079 28.0739H44.3634L44.3633 28.074L44.319 28.1184H44.2745L44.2743 28.1185L44.23 28.1628H44.1855H44.141L44.1409 28.163L44.0965 28.2073H44.0521L44.0519 28.2075L44.0076 28.2518H43.9631L43.963 28.2519L43.9186 28.2963H43.8741L43.874 28.2964L43.8297 28.3408H43.7852H43.7407L43.7406 28.3409L43.6962 28.3853H43.6517L43.6516 28.3854L43.6072 28.4297H43.5628L43.5626 28.4299L43.5183 28.4742H43.4738H43.4293L43.4292 28.4744L43.3848 28.5187H43.3404L43.3402 28.5188L43.2959 28.5632H43.2514L43.2513 28.5633L43.2069 28.6077H43.1624H43.1179L43.1178 28.6078L43.0735 28.6521H43.029L43.0288 28.6523L42.9845 28.6966H42.94L42.9399 28.6968L42.8955 28.7411H42.8511L42.8509 28.7412L42.8066 28.7856H42.7621H42.7176L42.7175 28.7857L42.6731 28.8301H42.6286L42.6285 28.8302L42.5842 28.8746H42.5397L42.5395 28.8747L42.4952 28.919H42.4507H42.4062L42.4061 28.9192L42.3618 28.9635H42.3173L42.3171 28.9637L42.2728 29.008H42.2283L42.2282 29.0081L42.1838 29.0525H42.1393H42.0949L42.0947 29.0526L42.0504 29.097H42.0059L42.0058 29.0971L41.9614 29.1414H41.9169L41.9168 29.1416L41.8725 29.1859H41.828H41.7835L41.7833 29.1861L41.739 29.2304H41.6945L41.6944 29.2305L41.65 29.2749H41.6056L41.6054 29.275L41.5611 29.3194H41.5166L41.5165 29.3195L41.4721 29.3639L41.472 29.364L41.4276 29.4083L41.4275 29.4085L41.3832 29.4528L41.383 29.453L41.3387 29.4973L41.3385 29.4974V29.5419L41.2942 29.5863L41.294 29.5864V29.6309L41.2497 29.6752L41.2496 29.6754V29.7198L41.2052 29.7642L41.2051 29.7643V29.8088L41.1607 29.8532L41.1606 29.8533V29.8978V29.9423L41.1163 29.9866L41.1161 29.9867V30.0312V30.0757L41.0718 30.12L41.0716 30.1202V30.1647V30.2091L41.0273 30.2535L41.0272 30.2536V30.2981V30.3426L40.9828 30.3869L40.9827 30.3871V30.4316V30.476L40.9383 30.5204L40.9382 30.5205V30.565V30.6095L40.8939 30.6538L40.8937 30.654V30.6984V30.7429L40.8494 30.7873L40.8492 30.7874V30.8319V30.8764L40.8049 30.9207L40.8047 30.9209V30.9653V31.0098L40.7604 31.0542L40.7603 31.0543V31.0988V31.1433L40.7159 31.1876L40.7158 31.1877V31.2322V31.2767L40.6714 31.3211L40.6713 31.3212V31.3657V31.4102L40.627 31.4545L40.6268 31.4546V31.4991V31.5436L40.5825 31.5879L40.5823 31.5881V31.6326V31.677L40.538 31.7214L40.5379 31.7215V31.766V31.8105L40.4935 31.8548L40.4934 31.855V31.8995L40.449 31.9438L40.4489 31.9439V31.9884V32.0329L40.4046 32.0772L40.4044 32.0774V32.1219V32.1663L40.3601 32.2107L40.3599 32.2108V32.2553V32.2998L40.3156 32.3441L40.3154 32.3443V32.3888V32.4332L40.2711 32.4776L40.271 32.4777V32.5222V32.5667L40.2266 32.611L40.2265 32.6112V32.6556V32.7001L40.1821 32.7445L40.182 32.7446V32.7891V32.8336L40.1377 32.8779L40.1375 32.8781V32.9225V32.967L40.0932 33.0114L40.093 33.0115V33.056V33.1005L40.0487 33.1448L40.0486 33.1449V33.1894V33.2339L40.0042 33.2783L40.0041 33.2784V33.3229V33.3674L39.9597 33.4117L39.9596 33.4118V33.4563L39.9597 33.4565L40.0041 33.5008L40.0042 33.5009H40.0487H40.0932H40.1377H40.1821H40.2266H40.2711H40.3156H40.3601H40.4046H40.449H40.4935H40.538H40.5825H40.627H40.6714H40.7159H40.7604H40.8049H40.8494H40.8939H40.9383H40.9828H41.0273H41.0718H41.1163H41.1607H41.2052H41.2497H41.2942H41.3387H41.3832H41.4276H41.4721H41.5166H41.5611H41.6056H41.65H41.6945H41.739H41.7835H41.828H41.8725H41.9169H41.9614H42.0059H42.0504H42.0949H42.1393H42.1838H42.2283H42.2728H42.3173H42.3618H42.4062H42.4507H42.4952H42.5397H42.5842H42.6286H42.6731H42.7176H42.7621H42.8066H42.8511H42.8955H42.94H42.9845H43.029H43.0735H43.1179H43.1624H43.2069H43.2514H43.2959H43.3404H43.3848H43.4293H43.4738H43.5183H43.5628H43.6072H43.6517H43.6962H43.7407H43.7852H43.8297H43.8741H43.9186H43.9631H44.0076H44.0521H44.0965H44.141H44.1855H44.23H44.2745H44.319H44.3634H44.4079H44.4524H44.4969H44.5414H44.5858H44.6303H44.6748H44.7193H44.7638H44.8083H44.8527H44.8972H44.9417H44.9862H45.0307H45.0751H45.1196H45.1641H45.2086H45.2531H45.2976H45.342H45.3865H45.431H45.4755H45.52H45.5644H45.6089H45.6534H45.6979H45.7424H45.7869H45.8313H45.8758H45.9203H45.9648H46.0093H46.0537H46.0982H46.1427H46.1872H46.2317H46.2762H46.3206H46.3651H46.4096H46.4541H46.4986H46.543H46.5875H46.632H46.6765H46.721H46.7655H46.8099H46.8544H46.8989H46.9434H46.9879H47.0323H47.0768H47.1213H47.1658H47.2103H47.2548H47.2992H47.3437H47.3882H47.4327H47.4772H47.5217H47.5661H47.6106H47.6551H47.6996H47.7441H47.7885H47.833H47.8775H47.922H47.9665H48.011H48.0554H48.0999H48.1444H48.1889H48.2334H48.2778H48.3223H48.3668H48.4113H48.4558H48.5003H48.5447H48.5892H48.6337H48.6782H48.7227H48.7671H48.8116H48.8561H48.9006H48.9451H48.9896H49.034H49.0785H49.123L49.1673 33.5453V33.5898V33.6342V33.6787V33.7232V33.7677V33.8122V33.8567V33.9011V33.9456V33.9901V34.0346V34.0791V34.1236V34.168V34.2125V34.257V34.3015V34.346V34.3904V34.4349V34.4794V34.5239V34.5684V34.6129V34.6573V34.7018V34.7463V34.7908V34.8353V34.8797V34.9242V34.9687V35.0132V35.0577V35.1022V35.1466V35.1911V35.2356V35.2801V35.3246V35.369V35.4135V35.458V35.5025V35.547V35.5915V35.6359V35.6804V35.7249V35.7694V35.8139V35.8583V35.9028V35.9473V35.9918V36.0363V36.0808V36.1252V36.1697V36.2142V36.2587V36.3032V36.3476V36.3921V36.4366V36.4811V36.5256V36.5701V36.6145V36.659V36.7035V36.748V36.7925V36.8369V36.8814V36.9259V36.9704V37.0149V37.0594V37.1038V37.1483V37.1928V37.2373V37.2818V37.3262V37.3707V37.4152V37.4597V37.5042V37.5487V37.5931V37.6376V37.6821V37.7266V37.7711V37.8155V37.86V37.9045V37.949V37.9935V38.038V38.0824V38.1269V38.1714V38.2159V38.2604V38.3048V38.3493V38.3938V38.4383V38.4828V38.5273V38.5717V38.6162V38.6607V38.7052V38.7497V38.7941V38.8386V38.8831V38.9276V38.9721V39.0166V39.061V39.1055V39.15V39.1945V39.239V39.2834V39.3279V39.3724V39.4169V39.4614V39.5059V39.5503V39.5948V39.6393V39.6838V39.7283V39.7727V39.8172V39.8617V39.9062V39.9507V39.9952L49.123 40.0395L49.1229 40.0396V40.0841V40.1286V40.1731L49.0785 40.2174L49.0784 40.2176V40.2621L49.034 40.3064L49.0339 40.3065V40.351L48.9896 40.3954L48.9894 40.3955V40.44L48.9451 40.4843L48.9449 40.4845V40.5289L48.9006 40.5733L48.9004 40.5734L48.8561 40.6178L48.856 40.6179L48.8116 40.6622L48.8115 40.6624L48.7671 40.7067L48.767 40.7069L48.7227 40.7512L48.7225 40.7514L48.6782 40.7957L48.678 40.7958L48.6337 40.8402L48.6336 40.8403L48.5892 40.8847L48.5891 40.8848L48.5447 40.9291H48.5003L48.5001 40.9293L48.4558 40.9736L48.4556 40.9738L48.4113 41.0181H48.3668L48.3667 41.0182L48.3223 41.0626H48.2778L48.2777 41.0627L48.2334 41.1071H48.1889L48.1887 41.1072L48.1444 41.1516H48.0999H48.0554L48.0553 41.1517L48.011 41.196H47.9665H47.922H47.8775L47.8774 41.1962L47.833 41.2405Z" fill="white"/>
<path d="M49.1477 35.0018V20.622L47.0603 19.9648L44.1998 26.2657L40.7595 28.0438L38.7881 34.2673L49.1477 35.0018Z" fill="white"/>
<path d="M25.7695 20.2891H26.0371L26.0811 20.334H26.3926L26.4375 20.3779H26.7041L26.748 20.4229H27.0156L27.0596 20.4668H27.3271L27.3711 20.5117H27.6826L27.7266 20.5557H28.0381L28.083 20.6006H28.3496L28.3945 20.6445V20.6455H28.7061L28.75 20.6895H29.0176L29.0615 20.7344H29.3281L29.373 20.7783H29.6396L29.6846 20.8232H29.9512L29.9951 20.8672H30.3066L30.3516 20.9121H30.6182L30.6631 20.9561H30.9746L31.0186 21.001H31.2861L31.3301 21.0449H31.5967L31.6416 21.0898H31.8643L31.9082 21.1338V21.1348H32.0859L32.1309 21.1787H32.1758L32.2197 21.2236H32.3086L32.3535 21.2676L32.3975 21.3125H32.4424L32.5752 21.4453H32.5762L32.6201 21.4902L32.709 21.5791L32.7539 21.623V21.624L32.7979 21.668V21.7129L32.8428 21.7568V21.8018L32.8867 21.8457V21.8906L32.9316 21.9346V21.9795L32.9756 22.0234V22.1572L33.0205 22.2021V22.291L33.0645 22.335V22.4688H33.0654L33.1094 22.5127V22.6025L33.1543 22.6465V22.7354L33.1982 22.7803V22.9141L33.2432 22.958V23.0469L33.2871 23.0918V23.1807L33.332 23.2246V23.3584L33.376 23.4023V23.4922L33.4209 23.5361V23.6699L33.4648 23.7139V23.8037L33.5098 23.8477V23.9365L33.5537 23.9814V24.1143H33.5547L33.5986 24.1592V24.248L33.6436 24.292V24.3818L33.6875 24.4258V24.5596L33.7324 24.6035V24.6934L33.7764 24.7373V24.8711L33.8213 24.915V25.0039L33.8652 25.0488V25.1377L33.9102 25.1816V25.3154L33.9541 25.3604V25.4492H33.9551L33.999 25.4932L34.043 25.5381H34.0879L34.1328 25.582V25.583H34.1768L34.2217 25.627L34.2656 25.6709V25.6719H34.3105L34.4434 25.8047H34.4443L34.4883 25.8496L34.5332 25.8936L34.5771 25.9385L34.6221 25.9824V26.0273L34.666 26.0713V26.0723L34.7109 26.1162V26.1611L34.7998 26.25V26.3389L34.8438 26.3828V26.4717L34.8887 26.5166V26.6504L34.9326 26.6943V27.3174L34.8887 27.3613V27.7178L34.8447 27.7617H34.8438V28.1182L34.7998 28.1621V28.5186L34.7549 28.5625V28.9189L34.7109 28.9629V29.2744L34.666 29.3184V29.5859L34.6221 29.6299V29.9414L34.5771 29.9863V30.2529L34.5332 30.2969V30.5195L34.4883 30.5645V30.6533L34.4434 30.6982V30.7422L34.3994 30.7871V30.8311L34.3545 30.876V30.9199L34.3105 30.9648V31.0088L34.2217 31.0977V31.0986L34.1768 31.1426L34.1328 31.1865V31.1875L34.0879 31.2314L34.0439 31.2764H34.043L33.999 31.3203L33.9551 31.3652H33.9541L33.9102 31.4092H33.8652L33.8213 31.4541L33.7764 31.498H33.7324L33.6875 31.543H33.5986L33.5547 31.5869H33.5098V31.5879L33.4648 31.6318H33.4209V31.8096L33.376 31.8545V32.0771L33.332 32.1211V32.3877L33.2871 32.4326V32.6992L33.2432 32.7441V33.0107L33.1982 33.0557V33.1885L33.1543 33.2334V33.2773L33.1094 33.3223V33.3672L33.0654 33.4111H33.0645L33.0205 33.4561L32.9756 33.5V33.5449L32.8428 33.6777H32.7979L32.7539 33.7227L32.709 33.7666H32.6641L32.6201 33.8115H32.5752L32.5312 33.8555H32.4863V33.8564L32.4424 33.9004H32.2646L32.2197 33.9453H31.9971L31.9531 33.9004H31.7754L31.7305 33.8564V33.8555H31.6416L31.5977 33.8115H31.5527L31.4639 33.7227H31.4189L31.375 33.6777L31.3301 33.6338L31.2861 33.5889L31.2412 33.5449L31.1973 33.5H31.1963L31.1523 33.4561V33.4111L31.0635 33.3223V33.2773L31.0186 33.2334V33.1445L30.9746 33.0996V32.9219L30.9297 32.8779V32.6553L30.9746 32.6104V32.3438L31.0186 32.2998V31.9883L31.0635 31.9434V31.6768L31.1074 31.6318H31.1084V31.3652L31.1523 31.3203V31.2764H30.9746L30.9297 31.2314H30.6631L30.6182 31.1875V31.1865H30.3516L30.3076 31.1426H30.04L29.9961 31.0986V31.0977H29.7734L29.7285 31.0537H29.417L29.373 31.0088H29.1064L29.0615 30.9648H28.75L28.7061 30.9199H28.3945L28.3496 30.876H28.083L28.0391 30.8311H27.7275L27.6826 30.7871H27.3711L27.3271 30.7422H27.0156L26.9707 30.6982V30.6973H26.7041L26.6602 30.6533H26.3926L26.3486 30.6084H26.0371L25.9922 30.5645H25.6807L25.6367 30.5195H25.3691L25.3252 30.4756H25.0586L25.0137 30.4307H24.7021L24.6582 30.3867H24.3906L24.3467 30.3418H23.9902L23.9463 30.2979V30.2969H23.7236V30.5195L23.6797 30.5645H23.6787V30.8311L23.6348 30.876V31.1426L23.5898 31.1875V31.4541L23.5459 31.498V31.7656L23.501 31.8096V31.8984L23.457 31.9434V31.9883L23.4121 32.0322L23.3682 32.0762V32.1211L23.1904 32.2988H23.1895L23.1455 32.3438L23.1006 32.3877L23.0566 32.4326H23.0117L22.9678 32.4766H22.9229V32.4775L22.8789 32.5215H22.7891L22.7451 32.5664H22.6113L22.5674 32.6104H22.3008L22.2559 32.5664H22.0781L22.0332 32.5215H21.9893L21.9443 32.4775V32.4766H21.9004L21.8555 32.4326H21.8115L21.7227 32.3438H21.7217L21.6777 32.2988L21.6328 32.2549L21.5889 32.21L21.5439 32.166L21.5 32.1211L21.4551 32.0771V32.0322L21.4111 31.9883V31.9434L21.3662 31.8984V31.8096L21.3223 31.7656V30.9648L21.3662 30.9199V30.6982L21.4111 30.6533V30.3418L21.4551 30.2979V29.9414L21.4111 29.8975H21.3662L21.3223 29.8525H21.3213L21.2773 29.8086V29.8076L21.2334 29.7637H21.2324L21.1885 29.7188L21.1436 29.6748L21.0996 29.6299L21.0547 29.5859L21.0107 29.541L20.9658 29.4971V29.4521L20.877 29.3633V29.3184L20.833 29.2744V29.2295H20.832L20.7881 29.1855V29.0518L20.7432 29.0078V28.7852L20.6992 28.7402V28.5625L20.7432 28.5186V28.1621L20.7881 28.1182V27.8066L20.832 27.7617H20.833V27.4951L20.877 27.4512V27.1836L20.9219 27.1396V26.8281L20.9658 26.7832V26.5166L21.0107 26.4727V26.2051L21.0547 26.1611V25.8496L21.0996 25.8047V25.582L21.1436 25.5381V25.2715L21.1885 25.2266V25.0928L21.2324 25.0488H21.2334V25.0039L21.2773 24.96V24.915L21.3213 24.8711H21.3223V24.8262L21.3662 24.7822V24.7373L21.4111 24.6934V24.6924L21.4551 24.6484V24.6035L21.5 24.5596L21.5439 24.5146L21.5889 24.4707L21.6328 24.4258L21.6777 24.3818L21.7217 24.3369H21.7227L21.7666 24.293H21.8115V24.292L21.8555 24.248L21.9004 24.2041H21.9443V24.2031L21.9893 24.1592H22.0332L22.0781 24.1143H22.123L22.167 24.0703H22.2559L22.3008 24.0254H22.3896L22.4336 23.9814H22.4785L22.5225 23.9365V23.8926L22.6123 23.8027V23.7588L22.6562 23.7139V23.6699L22.7451 23.5811V23.5361L22.79 23.4922V23.4473L22.834 23.4033V23.4023L22.8789 23.3584V23.3135L22.9229 23.2695V23.2246L22.9678 23.1807L23.0117 23.1357H23.0127V23.0918L23.0566 23.0469V23.0029L23.1006 22.958H23.1016L23.1455 22.9141V22.8691L23.1904 22.8242V22.7803L23.2344 22.7354L23.2793 22.6914V22.6465L23.3232 22.6025V22.5576L23.3682 22.5137V22.5127L23.4121 22.4688V22.4238L23.457 22.3799V22.335L23.501 22.291H23.502L23.5459 22.2461V22.2021L23.5908 22.1572V22.1133L23.6348 22.0684L23.6797 22.0244V21.9795L23.7236 21.9346V21.8906L23.8125 21.8018V21.7568L23.8574 21.7129V21.668L23.9463 21.5791V21.5342L23.9902 21.4902H23.9912V21.4453L24.0801 21.3564V21.3125L24.124 21.2676L24.1689 21.2236V21.1787L24.2129 21.1348V21.0898L24.3018 21.001V20.9561L24.3467 20.9121L24.3906 20.8672H24.3916V20.8232L24.4355 20.7783L24.4805 20.7344L24.5244 20.6895L24.5693 20.6455V20.6445L24.7471 20.4668H24.791L24.8359 20.4229L24.8799 20.3779H24.9697L25.0137 20.334H25.0586L25.1025 20.2891H25.2363L25.2803 20.2451H25.7256L25.7695 20.2891ZM32.0859 27.5391H31.9971V27.54L31.9531 27.584H31.8643L31.8193 27.6279V27.6289L31.7754 27.6729H31.7305L31.4189 27.9844V28.0293L31.375 28.0732V28.1182L31.3301 28.1621V28.251L31.2861 28.2959H31.2852V28.874H31.2861L31.3301 28.9189V28.9629L31.375 29.0078V29.0518L31.4189 29.0967V29.1406L31.4639 29.1855V29.2305L31.6855 29.4521H31.7305L31.7744 29.4971H31.8193L31.8643 29.541H31.9082L31.9531 29.5859H31.9971L32.042 29.6299V29.6309H32.2646L32.3086 29.6748H32.4424L32.4863 29.6309H32.665V29.6299L32.709 29.5859H32.7979L32.8428 29.541H32.8867L32.9316 29.4971L32.9756 29.4521H33.0205L33.0654 29.4082L33.1094 29.3633L33.1543 29.3193L33.1982 29.2744L33.2432 29.2305V29.2295L33.2871 29.1855V29.1406L33.332 29.0967V29.0518L33.376 29.0078H33.377V28.9189L33.4209 28.874V28.6963L33.4648 28.6514H33.4658V28.5186L33.4209 28.4736V28.251L33.377 28.207V28.1621H33.376L33.332 28.1182V28.0732L33.2871 28.0293V27.9844L33.2432 27.9395L33.1982 27.8955L33.1543 27.8506V27.8066L33.1094 27.7617H33.0654L33.0205 27.7178L32.9766 27.6729H32.9756L32.9316 27.6289V27.6279H32.8867L32.8428 27.584H32.7539L32.709 27.54V27.5391H32.6201L32.5762 27.4951H32.1309L32.0859 27.5391ZM23.3232 26.2061L23.2793 26.25H23.1006L23.0566 26.2939H22.9678V26.2949L22.9229 26.3389H22.8789L22.834 26.3838H22.7891L22.7002 26.4727H22.6562L22.6113 26.5166L22.5674 26.5615L22.5225 26.6055V26.6504L22.4785 26.6943V26.6953L22.4336 26.7393V26.7842L22.3896 26.8281H22.3887V26.873L22.3447 26.917V27.0508L22.2998 27.0957V27.54H22.3008L22.3447 27.585V27.7178L22.3887 27.7627V27.8066H22.3896L22.4336 27.8516V27.8965L22.4785 27.9404L22.5225 27.9854V28.0293L22.6562 28.1631H22.7002L22.7451 28.207L22.7891 28.252H22.834L22.8789 28.2959V28.2969H22.9229L22.9678 28.3408H23.0117L23.0566 28.3848V28.3857H23.2793L23.3232 28.4297H23.457L23.501 28.3857H23.6797V28.3848L23.7236 28.3408H23.8125L23.8574 28.2969H23.9014V28.2959L23.9463 28.252L23.9902 28.207H24.0352L24.0791 28.1631H24.0801L24.124 28.1182L24.1689 28.0742L24.2129 28.0293L24.2578 27.9854V27.9404L24.3018 27.8965V27.8955L24.3467 27.8516V27.8066L24.3906 27.7627V27.6738L24.4355 27.6289V27.4512L24.4805 27.4062V27.1846L24.4355 27.1396V27.0059L24.3906 26.9619V26.873L24.3467 26.8281V26.7842L24.2578 26.6953V26.6504L24.0801 26.4727H24.0791L24.0352 26.4277H23.9902L23.9014 26.3389H23.8125L23.7686 26.2949V26.2939H23.6797L23.6348 26.25H23.457L23.4121 26.2061V26.2051H23.3232V26.2061ZM25.5312 21.54L25.5195 21.5518L25.4756 21.5967L25.4414 21.6299H25.3975L25.375 21.6523V21.6963L25.3418 21.7295L25.2979 21.7744H25.2969L25.2861 21.7852V21.8291L25.2529 21.8633L25.1973 21.9189V21.9629L25.1641 21.9971L25.1523 22.0078V22.0527L25.0635 22.1416V22.1855L25.0303 22.2188L25.0195 22.2305V22.2744L24.9414 22.3525L24.9307 22.3643V22.4082L24.8857 22.4531V22.4971L24.8525 22.5303L24.8086 22.5752H24.8076L24.7969 22.5859V22.6299L24.7637 22.6641L24.752 22.6748V22.7197L24.7188 22.7529L24.708 22.7646V22.8086L24.6748 22.8418L24.6299 22.8857V22.8867L24.6191 22.8975V22.9414L24.5859 22.9756L24.5742 22.9863V23.0312L24.4854 23.1201V23.1641L24.4404 23.209V23.2539L24.4082 23.2861V23.2871L24.3965 23.2979V23.3428L24.3633 23.376L24.3516 23.3867V23.4316L24.3193 23.4648H24.3184L24.3076 23.4756V23.5195L24.2744 23.5537L24.2295 23.5977L24.2188 23.6094V23.6533L24.1855 23.6865V23.6875L24.1738 23.6982V23.7422L24.1406 23.7754V23.7764L24.1299 23.7871V23.8311L24.0967 23.8652L24.0518 23.9092L24.041 23.9209V23.9648L23.9961 24.0098V24.0537L23.9512 24.0986V24.1748L23.9746 24.1982H24.0635L24.1074 24.2422H24.374L24.4082 24.2754L24.4189 24.2871H24.7305L24.7637 24.3203L24.7754 24.3311H25.041L25.0752 24.3643L25.0859 24.376H25.3535L25.3975 24.4199H25.709L25.7539 24.4648H26.0205L26.0654 24.5098H26.332L26.3652 24.542V24.543L26.376 24.5537H26.6426L26.6768 24.5869L26.6875 24.5986H27L27.0322 24.6309V24.6318L27.0439 24.6426H27.3096L27.3438 24.6758L27.3555 24.6875H27.667L27.6992 24.7207L27.7109 24.7314H27.9775L28.0225 24.7764H28.334L28.3662 24.8096H28.3672L28.3779 24.8203H28.6885L28.7227 24.8535L28.7344 24.8652H29.0459L29.0781 24.8984L29.0898 24.9102H29.3574L29.4014 24.9541H29.7129L29.7451 24.9873H29.7461L29.7568 24.999H30.0244L30.0566 25.0312V25.0322L30.0684 25.043H30.3789L30.4131 25.0762L30.4238 25.0879H30.6914L30.7354 25.1318H31.002L31.0352 25.165H31.0361L31.0469 25.1768H31.3584L31.3916 25.21L31.4033 25.2207H31.6689L31.7031 25.2539L31.7139 25.2656H32.0264L32.0586 25.2988L32.0703 25.3096H32.502L32.5137 25.2988L32.5693 25.2432V25.1221L32.5586 25.1104L32.5254 25.0771V24.9443L32.5137 24.9326L32.4805 24.8984V24.8105L32.4697 24.7988L32.4365 24.7656V24.6768L32.4248 24.666V24.665L32.3916 24.6318V24.499L32.3809 24.4873H32.3799L32.3477 24.4551V24.3652L32.3359 24.3545L32.3027 24.3213V24.2324L32.2588 24.1885V24.0547L32.2139 24.0098V23.9209L32.1689 23.876V23.7871L32.1582 23.7764V23.7754L32.125 23.7422V23.6094L32.0801 23.5645V23.4756L32.0361 23.4316V23.3428L31.9912 23.2979V23.165L31.9805 23.1533H31.9795L31.9473 23.1201V23.0312L31.9023 22.9863V22.8535L31.8916 22.8418H31.8906L31.8584 22.8096V22.7197L31.8135 22.6748V22.6309L31.7686 22.5859V22.542L31.7578 22.5303L31.7246 22.4971V22.4531L31.6689 22.3975V22.3965L31.6572 22.3857H31.6133L31.5684 22.3408H31.5234L31.4912 22.3076H31.4902L31.4795 22.2969H31.2578L31.2236 22.2637L31.2129 22.252H30.9004L30.8682 22.2188L30.8564 22.208H30.5898L30.5449 22.1631H30.2334L30.2012 22.1299L30.1895 22.1191H29.9229L29.8779 22.0742H29.5664L29.5332 22.041L29.5225 22.0293H29.2549L29.2227 21.9971H29.2217L29.2109 21.9854H28.9434L28.9111 21.9521L28.8994 21.9404H28.5879L28.5547 21.9082V21.9072L28.5439 21.8965H28.2773L28.2432 21.8633L28.2324 21.8516H27.9648L27.9326 21.8184H27.9316L27.9209 21.8076H27.6543L27.6094 21.7627H27.3418L27.3096 21.7295L27.2979 21.7188H26.9873L26.9541 21.6855H26.9531L26.9424 21.6738H26.6748L26.6426 21.6406L26.6309 21.6299H26.3643L26.3193 21.585H26.0518L26.0195 21.5518L26.0078 21.54H25.5312Z" fill="white"/>
</svg>
