<svg width="70" height="70" viewBox="0 0 70 70" fill="none" xmlns="http://www.w3.org/2000/svg">
<path d="M48.2434 33.6637H48.199H48.1546H48.1103H48.0659H48.0215H47.9772H47.9328H47.8884H47.8441H47.7997H47.7554H47.711H47.6666H47.6223H47.5779H47.5335H47.4892H47.4448H47.4004H47.3561H47.3117H47.2673H47.223H47.1786H47.1342H47.0899H47.0455H47.0011H46.9568H46.9124H46.868H46.8237H46.7793H46.7349H46.6906H46.6462H46.6018H46.5575H46.5131H46.4687H46.4244H46.38H46.3357H46.2913H46.2469H46.2026H46.1582H46.1138H46.0695H46.0251H45.9807H45.9364H45.892H45.8476H45.8033H45.7589H45.7145H45.6702H45.6258H45.5814H45.5371H45.4927H45.4483H45.404H45.3596H45.3152H45.2709H45.2265H45.1821H45.1378H45.0934H45.049H45.0047H44.9603H44.916H44.8716H44.8272H44.7829H44.7385H44.6941H44.6498H44.6054H44.561H44.5167H44.4723H44.4279H44.3836H44.3392H44.2948H44.2505H44.2061H44.1617H44.1174H44.073H44.0286H43.9843H43.9399H43.8955H43.8512H43.8068H43.7624H43.7181H43.6737H43.6294H43.585H43.5406H43.4963H43.4519H43.4075H43.3632H43.3188H43.2744H43.2301H43.1857H43.1413H43.097H43.0526H43.0082H42.9639H42.9195H42.8751H42.8308H42.7864H42.742H42.6977H42.6533H42.6089H42.5646H42.5202H42.4758H42.4315H42.3871H42.3427H42.2984H42.254H42.2097H42.1653H42.1209H42.0766H42.0322H41.9878H41.9435H41.8991H41.8547H41.8104H41.766H41.7216H41.6773H41.6329H41.5885H41.5442H41.4998H41.4554H41.4111H41.3667H41.3223H41.278H41.2336H41.1892H41.1449H41.1005H41.0561H41.0118H40.9674H40.923H40.8787H40.8343H40.79H40.7456H40.7012H40.6569H40.6125H40.5681H40.5238H40.4794H40.435H40.3907H40.3463H40.3019H40.2576H40.2132H40.1688H40.1245H40.0801H40.0357H39.9914H39.947H39.9026H39.8583H39.8139H39.7695H39.7252H39.6808H39.6364H39.5921H39.5477H39.5034H39.459H39.4146H39.3703H39.3259H39.2815H39.2372H39.1928H39.1484H39.1041H39.0597H39.0153H38.971H38.9266H38.8822H38.8379H38.7935H38.7491H38.7048H38.6604H38.616H38.5717H38.5273H38.4829H38.4386H38.3942H38.3498H38.3055H38.2611H38.2167H38.1724H38.128H38.0837H38.0393H37.9949H37.9506H37.9062H37.8618H37.8175H37.7731H37.7287H37.6844H37.64H37.5956H37.5513H37.5069H37.4625H37.4182H37.3738H37.3294H37.2851H37.2407H37.1963H37.152H37.1076H37.0632H37.0189H36.9745H36.9301H36.8858H36.8414H36.7971H36.7527H36.7083H36.664H36.6196H36.5752H36.5309H36.4865H36.4421H36.3978H36.3534H36.309H36.2647H36.2203H36.1759H36.1316H36.0872H36.0428H35.9985H35.9541H35.9097H35.8654H35.821H35.7766H35.7323H35.6879H35.6435H35.5992H35.5548H35.5104H35.4661H35.4217H35.3774H35.333H35.2886H35.2443H35.1999H35.1555H35.1112H35.0668H35.0224H34.9781H34.9337H34.8893H34.845H34.8006H34.7562H34.7119H34.6675H34.6231H34.5788H34.5344H34.49H34.4457H34.4013H34.3569H34.3126H34.2682H34.2238H34.1795H34.1351H34.0908H34.0464H34.002H33.9577H33.9133H33.8689H33.8246H33.7802H33.7358H33.6915H33.6471H33.6027H33.5584H33.514H33.4696H33.4253H33.3809H33.3365H33.2922H33.2478H33.2034H33.1591H33.1147H33.0703H33.026H32.9816H32.9372H32.8929H32.8485H32.8041H32.7598H32.7154H32.6711H32.6267H32.5823H32.538H32.4936H32.4492H32.4049H32.3605H32.3161H32.2718H32.2274H32.183H32.1387H32.0943H32.0499H32.0056H31.9612H31.9168H31.8725H31.8281H31.7837H31.7394H31.695H31.6506H31.6063H31.5619H31.5175H31.4732H31.4288H31.3845H31.3401H31.2957H31.2514H31.207H31.1626H31.1183H31.0739H31.0295H30.9852H30.9408H30.8964H30.8521H30.8077H30.7633H30.719H30.6746H30.6302H30.5859H30.5415H30.4971H30.4528H30.4084H30.364H30.3197H30.2753H30.2309H30.1866H30.1422H30.0978H30.0535H30.0091H29.9648H29.9204H29.876H29.8317H29.7873H29.7429H29.6986H29.6542H29.6098H29.5655H29.5211H29.4767H29.4324H29.388H29.3436H29.2993H29.2549H29.2105H29.1662H29.1218H29.0774H29.0331H28.9887H28.9443H28.9H28.8556H28.8112H28.7669H28.7225H28.6782H28.6338H28.5894H28.5451H28.5007H28.4563H28.412H28.3676H28.3232H28.2789H28.2345H28.1901H28.1458H28.1014H28.057H28.0127H27.9683H27.9239H27.8796H27.8352H27.7908H27.7465H27.7021H27.6577H27.6134H27.569H27.5246H27.4803H27.4359H27.3915H27.3472H27.3028H27.2585H27.2141H27.1697H27.1254H27.081H27.0366H26.9923H26.9479H26.9035H26.8592H26.8148H26.7704H26.7261H26.6817H26.6373H26.593H26.5486H26.5042H26.4599H26.4155H26.3711H26.3268H26.2824H26.238H26.1937H26.1493H26.1049H26.0606H26.0162H25.9718H25.9275H25.8831H25.8388H25.7944H25.75H25.7057H25.6613H25.6169H25.5726H25.5282H25.4838H25.4395H25.3951H25.3507H25.3064H25.262H25.2176H25.1733H25.1289H25.0845H25.0402H24.9958H24.9514H24.9071H24.8627H24.8183H24.774H24.7296H24.6852H24.6409H24.5965H24.5522H24.5078H24.4634H24.4191H24.3747H24.3303H24.286H24.2416H24.1972H24.1529H24.1085H24.0641H24.0198H23.9754H23.931H23.8867H23.8423H23.7979H23.7536H23.7092H23.6648H23.6205H23.5761H23.5317H23.4874H23.443H23.3986H23.3543H23.3099H23.2655H23.2212H23.1768H23.1325H23.0881H23.0437H22.9994H22.955H22.9106H22.8663H22.8219H22.7775H22.7332H22.6888H22.6444H22.6001H22.5557H22.5113H22.467H22.4226H22.3782H22.3339H22.2895H22.2451H22.2008H22.1564H22.112H22.0677H22.0233H21.9789H21.9346H21.8902H21.8458H21.8015H21.7571L21.7129 33.6195V33.5751V33.5307V33.4864V33.442V33.3976V33.3533V33.3089V33.2645V33.2202V33.1758V33.1314V33.0871V33.0427V32.9983V32.954V32.9096V32.8652V32.8209V32.7765V32.7321V32.6878V32.6434V32.599V32.5547V32.5103V32.466V32.4216V32.3772V32.3329V32.2885V32.2441V32.1998V32.1554V32.111V32.0667V32.0223V31.9779V31.9336V31.8892V31.8448V31.8005V31.7561V31.7117V31.6674V31.623V31.5786V31.5343V31.4899V31.4455V31.4012V31.3568V31.3124V31.2681V31.2237V31.1793V31.135V31.0906V31.0463V31.0019V30.9575V30.9132V30.8688V30.8244V30.7801V30.7357V30.6913V30.647V30.6026V30.5582V30.5139V30.4695V30.4251V30.3808V30.3364V30.292V30.2477V30.2033V30.1589V30.1146V30.0702V30.0258V29.9815V29.9371V29.8927V29.8484V29.804V29.7597L21.7571 29.7154L21.7573 29.7153L21.8015 29.6711H21.8458H21.8902H21.9346H21.9789H22.0233H22.0677H22.112H22.1564H22.2008H22.2451H22.2895H22.3339H22.3782H22.4226H22.467H22.5113H22.5557H22.6001L22.6002 29.6709L22.6444 29.6267H22.6888H22.7332H22.7775H22.8219H22.8663L22.8664 29.6266L22.9106 29.5823H22.955H22.9994H23.0437H23.0881L23.0882 29.5822L23.1325 29.538H23.1768H23.2212L23.2213 29.5378L23.2655 29.4936H23.3099H23.3543L23.3544 29.4935L23.3986 29.4492H23.443H23.4874L23.4875 29.4491L23.5317 29.4049H23.5761L23.5762 29.4047L23.6205 29.3605H23.6648L23.665 29.3604L23.7092 29.3161H23.7536L23.7537 29.316L23.7979 29.2718H23.8423L23.8424 29.2716L23.8867 29.2274H23.931L23.9312 29.2273L23.9754 29.183L23.9755 29.1829L24.0198 29.1387H24.0641L24.0643 29.1385L24.1085 29.0943L24.1086 29.0942L24.1529 29.0499L24.153 29.0498L24.1972 29.0056H24.2416L24.2417 29.0054L24.286 28.9612L24.2861 28.9611L24.3303 28.9168L24.3305 28.9167L24.3747 28.8725L24.3748 28.8723L24.4191 28.8281L24.4192 28.828L24.4634 28.7837L24.4636 28.7836L24.5078 28.7394L24.5079 28.7392L24.5522 28.695L24.5523 28.6949L24.5965 28.6506L24.5967 28.6505L24.6409 28.6063L24.641 28.6061L24.6852 28.5619L24.6854 28.5618L24.7296 28.5176L24.7298 28.5174L24.774 28.4732L24.7741 28.473V28.4287L24.8183 28.3845L24.8185 28.3843L24.8627 28.3401L24.8628 28.34L24.9071 28.2957L24.9072 28.2956V28.2512L24.9514 28.207L24.9516 28.2069L24.9958 28.1626L24.9959 28.1625V28.1181L25.0402 28.0739L25.0403 28.0738L25.0845 28.0295L25.0847 28.0294V27.985L25.1289 27.9408L25.129 27.9407V27.8963L25.1733 27.8521L25.1734 27.8519L25.2176 27.8077L25.2178 27.8076V27.7632L25.262 27.719L25.2621 27.7188L25.3064 27.6746L25.3065 27.6745V27.6301L25.3507 27.5859L25.3509 27.5857V27.5414L25.3951 27.4971L25.3952 27.497L25.4395 27.4528L25.4396 27.4526V27.4083L25.4838 27.364L25.484 27.3639L25.5282 27.3197L25.5283 27.3195V27.2752L25.5726 27.231L25.5727 27.2308L25.6169 27.1866L25.6171 27.1864L25.6613 27.1422L25.6614 27.1421V27.0977L25.7057 27.0535L25.7058 27.0533L25.75 27.0091L25.7502 27.009L25.7944 26.9648L25.7945 26.9646L25.8388 26.9204L25.8389 26.9203L25.8831 26.876L25.8833 26.8759L25.9275 26.8317L25.9276 26.8315L25.9718 26.7873L25.972 26.7872L26.0162 26.7429L26.0164 26.7428L26.0606 26.6986L26.0607 26.6984L26.1049 26.6542L26.1051 26.6541L26.1493 26.6098L26.1494 26.6097L26.1937 26.5655L26.1938 26.5653L26.238 26.5211L26.2382 26.521L26.2824 26.4767H26.3268L26.3269 26.4766L26.3711 26.4324L26.3713 26.4322L26.4155 26.388L26.4156 26.3879L26.4599 26.3436H26.5042L26.5044 26.3435L26.5486 26.2993L26.5487 26.2991L26.593 26.2549H26.6373L26.6375 26.2548L26.6817 26.2105L26.6818 26.2104L26.7261 26.1662H26.7704L26.7706 26.166L26.8148 26.1218H26.8592L26.8593 26.1217L26.9035 26.0774H26.9479L26.948 26.0773L26.9923 26.0331H27.0366L27.0368 26.0329L27.081 25.9887H27.1254L27.1255 25.9886L27.1697 25.9443H27.2141L27.2142 25.9442L27.2585 25.9H27.3028H27.3472L27.3473 25.8998L27.3915 25.8556H27.4359H27.4803L27.4804 25.8555L27.5246 25.8113H27.569H27.6134H27.6577L27.6579 25.8111L27.7021 25.7669H27.7465H27.7908H27.8352L27.8353 25.7667L27.8796 25.7225H27.9239H27.9683H28.0127H28.057H28.1014H28.1458L28.1459 25.7224L28.1901 25.6782H28.2345H28.2789H28.3232H28.3676H28.412H28.4563H28.5007H28.5451H28.5894L28.6336 25.7224L28.6338 25.7225H28.6782H28.7225H28.7669H28.8112H28.8556H28.9H28.9443L28.9886 25.7667L28.9887 25.7669H29.0331H29.0774H29.1218H29.1662L29.2104 25.8111L29.2105 25.8113H29.2549H29.2993H29.3436L29.3879 25.8555L29.388 25.8556H29.4324H29.4767H29.5211L29.5653 25.8998L29.5655 25.9H29.6098H29.6542L29.6984 25.9442L29.6986 25.9443H29.7429L29.7872 25.9886L29.7873 25.9887H29.8317H29.876L29.9202 26.0329L29.9204 26.0331H29.9648L30.009 26.0773L30.0091 26.0774H30.0535L30.0977 26.1217L30.0978 26.1218H30.1422L30.1864 26.166L30.1866 26.1662H30.2309L30.2752 26.2104L30.2753 26.2105L30.3195 26.2548L30.3197 26.2549H30.364L30.4083 26.2991L30.4084 26.2993L30.4526 26.3435L30.4528 26.3436H30.4971L30.5414 26.3879L30.5415 26.388L30.5857 26.4322L30.5859 26.4324H30.6302L30.6745 26.4766L30.6746 26.4767L30.7188 26.521L30.719 26.5211L30.7632 26.5653L30.7633 26.5655L30.8076 26.6097L30.8077 26.6098L30.8519 26.6541L30.8521 26.6542L30.8963 26.6984L30.8964 26.6986L30.9407 26.7428L30.9408 26.7429L30.985 26.7872L30.9852 26.7873L31.0294 26.8315L31.0295 26.8317L31.0738 26.8759L31.0739 26.876L31.1181 26.9203L31.1183 26.9204L31.1625 26.9646L31.1626 26.9648L31.2069 27.009L31.207 27.0091L31.2512 27.0533L31.2514 27.0535L31.2956 27.0977L31.2957 27.0979L31.3399 27.1421V27.1864L31.3401 27.1866L31.3843 27.2308L31.3845 27.231L31.4287 27.2752L31.4288 27.2753L31.473 27.3195V27.3639L31.4732 27.364L31.5174 27.4083L31.5175 27.4084L31.5618 27.4526L31.5619 27.4528L31.6061 27.497V27.5414L31.6063 27.5415L31.6505 27.5857L31.6506 27.5859L31.6949 27.6301V27.6745L31.695 27.6746L31.7392 27.7188L31.7394 27.719L31.7836 27.7632V27.8076L31.7837 27.8077L31.828 27.8519L31.8281 27.8521L31.8723 27.8963L31.8725 27.8964L31.9167 27.9407V27.985L31.9168 27.9852L31.9611 28.0294L31.9612 28.0295L32.0054 28.0738V28.1181L32.0056 28.1183L32.0498 28.1625L32.0499 28.1626L32.0942 28.2069V28.2512L32.0943 28.2514L32.1385 28.2956L32.1387 28.2957L32.1829 28.34L32.183 28.3401L32.2273 28.3843V28.4287L32.2274 28.4288L32.2716 28.473L32.2718 28.4732L32.316 28.5174L32.3161 28.5176L32.3604 28.5618L32.3605 28.5619L32.4047 28.6061L32.4049 28.6063L32.4491 28.6505V28.6949L32.4492 28.695L32.4935 28.7392L32.4936 28.7394L32.5378 28.7836L32.538 28.7837L32.5822 28.828L32.5823 28.8281H32.6267L32.6709 28.8723L32.6711 28.8725L32.7153 28.9167L32.7154 28.9168L32.7596 28.9611L32.7598 28.9612L32.804 29.0054L32.8041 29.0056L32.8484 29.0498L32.8485 29.0499L32.8927 29.0942L32.8929 29.0943H32.9372L32.9815 29.1385L32.9816 29.1387L33.0258 29.1829L33.026 29.183H33.0703L33.1146 29.2273L33.1147 29.2274H33.1591L33.2033 29.2716L33.2034 29.2718L33.2477 29.316L33.2478 29.3161H33.2922L33.3364 29.3604L33.3365 29.3605H33.3809H33.4253L33.4695 29.4047L33.4696 29.4049H33.514L33.5582 29.4491L33.5584 29.4492H33.6027H33.6471L33.6913 29.4935L33.6915 29.4936H33.7358H33.7802L33.8244 29.5378L33.8246 29.538H33.8689H33.9133H33.9577L34.0019 29.5822L34.002 29.5823H34.0464H34.0908H34.1351H34.1795L34.2237 29.6266L34.2238 29.6267H34.2682H34.3126H34.3569H34.4013H34.4457L34.4899 29.6709L34.49 29.6711H34.5344H34.5788H34.6231H34.6675H34.7119H34.7562H34.8006H34.845H34.8893H34.9337H34.9781H35.0224H35.0668H35.1112H35.1555H35.1999H35.2443H35.2886H35.333H35.3774H35.4217H35.4661H35.5104H35.5548H35.5992H35.6435L35.6437 29.6709L35.6879 29.6267H35.7323H35.7766H35.821H35.8654H35.9097L35.9099 29.6266L35.9541 29.5823H35.9985H36.0428H36.0872H36.1316L36.1317 29.5822L36.1759 29.538H36.2203H36.2647H36.309L36.3092 29.5378L36.3534 29.4936H36.3978H36.4421L36.4423 29.4935L36.4865 29.4492H36.5309L36.531 29.4491L36.5752 29.4049H36.6196H36.664L36.6641 29.4047L36.7083 29.3605H36.7527L36.7528 29.3604L36.7971 29.3161L36.7972 29.316L36.8414 29.2718H36.8858L36.8859 29.2716L36.9301 29.2274H36.9745L36.9747 29.2273L37.0189 29.183L37.019 29.1829L37.0632 29.1387H37.1076L37.1077 29.1385L37.152 29.0943L37.1521 29.0942L37.1963 29.0499L37.1965 29.0498L37.2407 29.0056H37.2851L37.2852 29.0054L37.3294 28.9612L37.3296 28.9611L37.3738 28.9168L37.3739 28.9167L37.4182 28.8725L37.4183 28.8723L37.4625 28.8281L37.4627 28.828L37.5069 28.7837L37.507 28.7836L37.5513 28.7394L37.5514 28.7392L37.5956 28.695L37.5958 28.6949L37.64 28.6506L37.6401 28.6505L37.6844 28.6063L37.6845 28.6061L37.7287 28.5619L37.7289 28.5618V28.5174L37.7731 28.4732L37.7732 28.473L37.8175 28.4288L37.8176 28.4287L37.8618 28.3845L37.862 28.3843V28.34L37.9062 28.2957L37.9063 28.2956L37.9506 28.2514L37.9507 28.2512L37.9949 28.207L37.9951 28.2069V28.1625L38.0393 28.1183L38.0394 28.1181L38.0837 28.0739L38.0838 28.0738V28.0294L38.128 27.9852L38.1282 27.985L38.1724 27.9408L38.1725 27.9407V27.8963L38.2167 27.8521L38.2169 27.8519L38.2611 27.8077L38.2613 27.8076V27.7632L38.3055 27.719L38.3056 27.7188L38.3498 27.6746L38.35 27.6745V27.6301L38.3942 27.5859L38.3944 27.5857L38.4386 27.5415L38.4387 27.5414V27.497L38.4829 27.4528L38.4831 27.4526L38.5273 27.4084L38.5274 27.4083L38.5717 27.364L38.5718 27.3639V27.3195L38.616 27.2753L38.6162 27.2752L38.6604 27.231L38.6605 27.2308V27.1864L38.7048 27.1422L38.7049 27.1421L38.7491 27.0979L38.7493 27.0977L38.7935 27.0535L38.7936 27.0533L38.8379 27.0091L38.838 27.009V26.9646L38.8822 26.9204L38.8824 26.9203L38.9266 26.876L38.9267 26.8759L38.971 26.8317L38.9711 26.8315L39.0153 26.7873L39.0155 26.7872L39.0597 26.7429L39.0598 26.7428L39.1041 26.6986L39.1042 26.6984L39.1484 26.6542L39.1486 26.6541L39.1928 26.6098L39.1929 26.6097L39.2372 26.5655L39.2373 26.5653L39.2815 26.5211L39.2817 26.521L39.3259 26.4767L39.326 26.4766L39.3703 26.4324H39.4146L39.4148 26.4322L39.459 26.388L39.4591 26.3879L39.5034 26.3436L39.5035 26.3435L39.5477 26.2993H39.5921L39.5922 26.2991L39.6364 26.2549L39.6366 26.2548L39.6808 26.2105H39.7252L39.7253 26.2104L39.7695 26.1662L39.7697 26.166L39.8139 26.1218H39.8583L39.8584 26.1217L39.9026 26.0774L39.9028 26.0773L39.947 26.0331H39.9914L39.9915 26.0329L40.0357 25.9887H40.0801L40.0802 25.9886L40.1245 25.9443H40.1688L40.169 25.9442L40.2132 25.9H40.2576H40.3019L40.3021 25.8998L40.3463 25.8556H40.3907H40.435L40.4352 25.8555L40.4794 25.8113H40.5238L40.5239 25.8111L40.5681 25.7669H40.6125H40.6569H40.7012L40.7014 25.7667L40.7456 25.7225H40.79H40.8343H40.8787H40.923L40.9232 25.7224L40.9674 25.6782H41.0118H41.0561H41.1005H41.1449H41.1892H41.2336L41.2337 25.678L41.278 25.6338H41.3223H41.3667H41.4111H41.4554H41.4998L41.544 25.678L41.5442 25.6782H41.5885H41.6329H41.6773H41.7216H41.766H41.8104H41.8547H41.8991H41.9435L41.9877 25.7224L41.9878 25.7225H42.0322H42.0766H42.1209H42.1653L42.2095 25.7667L42.2097 25.7669H42.254H42.2984H42.3427L42.387 25.8111L42.3871 25.8113H42.4315H42.4758L42.5201 25.8555L42.5202 25.8556H42.5646H42.6089L42.6532 25.8998L42.6533 25.9H42.6977L42.7419 25.9442L42.742 25.9443H42.7864H42.8308L42.875 25.9886L42.8751 25.9887H42.9195L42.9637 26.0329L42.9639 26.0331H43.0082L43.0525 26.0773L43.0526 26.0774L43.0968 26.1217L43.097 26.1218H43.1413L43.1856 26.166L43.1857 26.1662H43.2301L43.2743 26.2104L43.2744 26.2105L43.3187 26.2548L43.3188 26.2549H43.3632L43.4074 26.2991L43.4075 26.2993L43.4518 26.3435L43.4519 26.3436H43.4963L43.5405 26.3879L43.5406 26.388L43.5848 26.4322L43.585 26.4324L43.6292 26.4766L43.6294 26.4767H43.6737L43.7179 26.521L43.7181 26.5211L43.7623 26.5653L43.7624 26.5655L43.8067 26.6097L43.8068 26.6098L43.851 26.6541L43.8512 26.6542L43.8954 26.6984L43.8955 26.6986L43.9398 26.7428L43.9399 26.7429H43.9843L44.0285 26.7872L44.0286 26.7873L44.0729 26.8315L44.073 26.8317L44.1172 26.8759L44.1174 26.876L44.1616 26.9203L44.1617 26.9204L44.206 26.9646L44.2061 26.9648L44.2503 27.009V27.0533L44.2505 27.0535L44.2947 27.0977L44.2948 27.0979L44.3391 27.1421L44.3392 27.1422L44.3834 27.1864L44.3836 27.1866L44.4278 27.2308L44.4279 27.231L44.4722 27.2752V27.3195L44.4723 27.3197L44.5165 27.3639L44.5167 27.364L44.5609 27.4083V27.4526L44.561 27.4528L44.6053 27.497L44.6054 27.4971L44.6496 27.5414V27.5857L44.6498 27.5859L44.694 27.6301V27.6745L44.6941 27.6746L44.7384 27.7188L44.7385 27.719L44.7827 27.7632V27.8076L44.7829 27.8077L44.8271 27.8519L44.8272 27.8521L44.8715 27.8963V27.9407L44.8716 27.9408L44.9158 27.985V28.0294L44.916 28.0295L44.9602 28.0738L44.9603 28.0739L45.0045 28.1181V28.1625L45.0047 28.1626L45.0489 28.2069L45.049 28.207L45.0933 28.2512V28.2956L45.0934 28.2957L45.1376 28.34L45.1378 28.3401L45.182 28.3843L45.1821 28.3845L45.2264 28.4287V28.473L45.2265 28.4732L45.2707 28.5174L45.2709 28.5176L45.3151 28.5618L45.3152 28.5619L45.3595 28.6061L45.3596 28.6063L45.4038 28.6505L45.404 28.6506L45.4482 28.6949L45.4483 28.695L45.4926 28.7392L45.4927 28.7394L45.5369 28.7836L45.5371 28.7837L45.5813 28.828L45.5814 28.8281L45.6257 28.8723L45.6258 28.8725L45.67 28.9167L45.6702 28.9168L45.7144 28.9611L45.7145 28.9612L45.7588 29.0054L45.7589 29.0056H45.8033L45.8475 29.0498L45.8476 29.0499L45.8919 29.0942L45.892 29.0943H45.9364L45.9806 29.1385L45.9807 29.1387L46.025 29.1829L46.0251 29.183H46.0695L46.1137 29.2273L46.1138 29.2274L46.1581 29.2716L46.1582 29.2718H46.2026L46.2468 29.316L46.2469 29.3161H46.2913L46.3355 29.3604L46.3357 29.3605H46.38L46.4242 29.4047L46.4244 29.4049H46.4687H46.5131L46.5573 29.4491L46.5575 29.4492H46.6018L46.6461 29.4935L46.6462 29.4936H46.6906H46.7349H46.7793L46.8235 29.5378L46.8237 29.538H46.868H46.9124L46.9566 29.5822L46.9568 29.5823H47.0011H47.0455H47.0899H47.1342L47.1785 29.6266L47.1786 29.6267H47.223H47.2673H47.3117H47.3561H47.4004L47.4447 29.6709L47.4448 29.6711H47.4892H47.5335H47.5779H47.6223H47.6666H47.711H47.7554H47.7997H47.8441H47.8884H47.9328H47.9772H48.0215H48.0659H48.1103H48.1546H48.199H48.2434L48.2876 29.7153V29.7597V29.804V29.8484V29.8927V29.9371V29.9815V30.0258V30.0702V30.1146V30.1589V30.2033V30.2477V30.292V30.3364V30.3808V30.4251V30.4695V30.5139V30.5582V30.6026V30.647V30.6913V30.7357V30.7801V30.8244V30.8688V30.9132V30.9575V31.0019V31.0463V31.0906V31.135V31.1793V31.2237V31.2681V31.3124V31.3568V31.4012V31.4455V31.4899V31.5343V31.5786V31.623V31.6674V31.7117V31.7561V31.8005V31.8448V31.8892V31.9336V31.9779V32.0223V32.0667V32.111V32.1554V32.1998V32.2441V32.2885V32.3329V32.3772V32.4216V32.466V32.5103V32.5547V32.599V32.6434V32.6878V32.7321V32.7765V32.8209V32.8652V32.9096V32.954V32.9983V33.0427V33.0871V33.1314V33.1758V33.2202V33.2645V33.3089V33.3533V33.3976V33.442V33.4864V33.5307V33.5751V33.6195L48.2434 33.6637Z" fill="white"/>
<path d="M35.0008 64.1654C46.6675 52.4987 58.3341 42.052 58.3341 29.1654C58.3341 16.2787 47.8875 5.83203 35.0008 5.83203C22.1142 5.83203 11.6675 16.2787 11.6675 29.1654C11.6675 42.052 23.3341 52.4987 35.0008 64.1654Z" fill="#51CC4B" stroke="white" stroke-width="2.44186" stroke-linecap="round" stroke-linejoin="round"/>
<path d="M23.8638 39.6447C23.8638 39.0394 23.8638 38.7368 23.9321 38.452C23.9928 38.1994 24.0928 37.958 24.2284 37.7366C24.3815 37.4869 24.5955 37.2729 25.0235 36.8449L40.5683 21.3001C41.5934 20.275 43.2554 20.275 44.2805 21.3001C45.3055 22.3251 45.3055 23.9871 44.2805 25.0122L28.7357 40.557C28.3077 40.985 28.0936 41.199 27.8439 41.352C27.6225 41.4877 27.3811 41.5877 27.1286 41.6483C26.8438 41.7167 26.5411 41.7167 25.9358 41.7167H23.8638V39.6447Z" fill="white"/>
<path d="M35 41.7168H46.1364H35Z" fill="white"/>
<path d="M35 41.7168H46.1364" stroke="white" stroke-width="2.47475" stroke-linecap="round" stroke-linejoin="round"/>
</svg>
