<svg width="70" height="70" viewBox="0 0 70 70" fill="none" xmlns="http://www.w3.org/2000/svg">
<path d="M48.2434 33.6637H48.199H48.1546H48.1103H48.0659H48.0215H47.9772H47.9328H47.8884H47.8441H47.7997H47.7554H47.711H47.6666H47.6223H47.5779H47.5335H47.4892H47.4448H47.4004H47.3561H47.3117H47.2673H47.223H47.1786H47.1342H47.0899H47.0455H47.0011H46.9568H46.9124H46.868H46.8237H46.7793H46.7349H46.6906H46.6462H46.6018H46.5575H46.5131H46.4687H46.4244H46.38H46.3357H46.2913H46.2469H46.2026H46.1582H46.1138H46.0695H46.0251H45.9807H45.9364H45.892H45.8476H45.8033H45.7589H45.7145H45.6702H45.6258H45.5814H45.5371H45.4927H45.4483H45.404H45.3596H45.3152H45.2709H45.2265H45.1821H45.1378H45.0934H45.049H45.0047H44.9603H44.916H44.8716H44.8272H44.7829H44.7385H44.6941H44.6498H44.6054H44.561H44.5167H44.4723H44.4279H44.3836H44.3392H44.2948H44.2505H44.2061H44.1617H44.1174H44.073H44.0286H43.9843H43.9399H43.8955H43.8512H43.8068H43.7624H43.7181H43.6737H43.6294H43.585H43.5406H43.4963H43.4519H43.4075H43.3632H43.3188H43.2744H43.2301H43.1857H43.1413H43.097H43.0526H43.0082H42.9639H42.9195H42.8751H42.8308H42.7864H42.742H42.6977H42.6533H42.6089H42.5646H42.5202H42.4758H42.4315H42.3871H42.3427H42.2984H42.254H42.2097H42.1653H42.1209H42.0766H42.0322H41.9878H41.9435H41.8991H41.8547H41.8104H41.766H41.7216H41.6773H41.6329H41.5885H41.5442H41.4998H41.4554H41.4111H41.3667H41.3223H41.278H41.2336H41.1892H41.1449H41.1005H41.0561H41.0118H40.9674H40.923H40.8787H40.8343H40.79H40.7456H40.7012H40.6569H40.6125H40.5681H40.5238H40.4794H40.435H40.3907H40.3463H40.3019H40.2576H40.2132H40.1688H40.1245H40.0801H40.0357H39.9914H39.947H39.9026H39.8583H39.8139H39.7695H39.7252H39.6808H39.6364H39.5921H39.5477H39.5034H39.459H39.4146H39.3703H39.3259H39.2815H39.2372H39.1928H39.1484H39.1041H39.0597H39.0153H38.971H38.9266H38.8822H38.8379H38.7935H38.7491H38.7048H38.6604H38.616H38.5717H38.5273H38.4829H38.4386H38.3942H38.3498H38.3055H38.2611H38.2167H38.1724H38.128H38.0837H38.0393H37.9949H37.9506H37.9062H37.8618H37.8175H37.7731H37.7287H37.6844H37.64H37.5956H37.5513H37.5069H37.4625H37.4182H37.3738H37.3294H37.2851H37.2407H37.1963H37.152H37.1076H37.0632H37.0189H36.9745H36.9301H36.8858H36.8414H36.7971H36.7527H36.7083H36.664H36.6196H36.5752H36.5309H36.4865H36.4421H36.3978H36.3534H36.309H36.2647H36.2203H36.1759H36.1316H36.0872H36.0428H35.9985H35.9541H35.9097H35.8654H35.821H35.7766H35.7323H35.6879H35.6435H35.5992H35.5548H35.5104H35.4661H35.4217H35.3774H35.333H35.2886H35.2443H35.1999H35.1555H35.1112H35.0668H35.0224H34.9781H34.9337H34.8893H34.845H34.8006H34.7562H34.7119H34.6675H34.6231H34.5788H34.5344H34.49H34.4457H34.4013H34.3569H34.3126H34.2682H34.2238H34.1795H34.1351H34.0908H34.0464H34.002H33.9577H33.9133H33.8689H33.8246H33.7802H33.7358H33.6915H33.6471H33.6027H33.5584H33.514H33.4696H33.4253H33.3809H33.3365H33.2922H33.2478H33.2034H33.1591H33.1147H33.0703H33.026H32.9816H32.9372H32.8929H32.8485H32.8041H32.7598H32.7154H32.6711H32.6267H32.5823H32.538H32.4936H32.4492H32.4049H32.3605H32.3161H32.2718H32.2274H32.183H32.1387H32.0943H32.0499H32.0056H31.9612H31.9168H31.8725H31.8281H31.7837H31.7394H31.695H31.6506H31.6063H31.5619H31.5175H31.4732H31.4288H31.3845H31.3401H31.2957H31.2514H31.207H31.1626H31.1183H31.0739H31.0295H30.9852H30.9408H30.8964H30.8521H30.8077H30.7633H30.719H30.6746H30.6302H30.5859H30.5415H30.4971H30.4528H30.4084H30.364H30.3197H30.2753H30.2309H30.1866H30.1422H30.0978H30.0535H30.0091H29.9648H29.9204H29.876H29.8317H29.7873H29.7429H29.6986H29.6542H29.6098H29.5655H29.5211H29.4767H29.4324H29.388H29.3436H29.2993H29.2549H29.2105H29.1662H29.1218H29.0774H29.0331H28.9887H28.9443H28.9H28.8556H28.8112H28.7669H28.7225H28.6782H28.6338H28.5894H28.5451H28.5007H28.4563H28.412H28.3676H28.3232H28.2789H28.2345H28.1901H28.1458H28.1014H28.057H28.0127H27.9683H27.9239H27.8796H27.8352H27.7908H27.7465H27.7021H27.6577H27.6134H27.569H27.5246H27.4803H27.4359H27.3915H27.3472H27.3028H27.2585H27.2141H27.1697H27.1254H27.081H27.0366H26.9923H26.9479H26.9035H26.8592H26.8148H26.7704H26.7261H26.6817H26.6373H26.593H26.5486H26.5042H26.4599H26.4155H26.3711H26.3268H26.2824H26.238H26.1937H26.1493H26.1049H26.0606H26.0162H25.9718H25.9275H25.8831H25.8388H25.7944H25.75H25.7057H25.6613H25.6169H25.5726H25.5282H25.4838H25.4395H25.3951H25.3507H25.3064H25.262H25.2176H25.1733H25.1289H25.0845H25.0402H24.9958H24.9514H24.9071H24.8627H24.8183H24.774H24.7296H24.6852H24.6409H24.5965H24.5522H24.5078H24.4634H24.4191H24.3747H24.3303H24.286H24.2416H24.1972H24.1529H24.1085H24.0641H24.0198H23.9754H23.931H23.8867H23.8423H23.7979H23.7536H23.7092H23.6648H23.6205H23.5761H23.5317H23.4874H23.443H23.3986H23.3543H23.3099H23.2655H23.2212H23.1768H23.1325H23.0881H23.0437H22.9994H22.955H22.9106H22.8663H22.8219H22.7775H22.7332H22.6888H22.6444H22.6001H22.5557H22.5113H22.467H22.4226H22.3782H22.3339H22.2895H22.2451H22.2008H22.1564H22.112H22.0677H22.0233H21.9789H21.9346H21.8902H21.8458H21.8015H21.7571L21.7129 33.6195V33.5751V33.5307V33.4864V33.442V33.3976V33.3533V33.3089V33.2645V33.2202V33.1758V33.1314V33.0871V33.0427V32.9983V32.954V32.9096V32.8652V32.8209V32.7765V32.7321V32.6878V32.6434V32.599V32.5547V32.5103V32.466V32.4216V32.3772V32.3329V32.2885V32.2441V32.1998V32.1554V32.111V32.0667V32.0223V31.9779V31.9336V31.8892V31.8448V31.8005V31.7561V31.7117V31.6674V31.623V31.5786V31.5343V31.4899V31.4455V31.4012V31.3568V31.3124V31.2681V31.2237V31.1793V31.135V31.0906V31.0463V31.0019V30.9575V30.9132V30.8688V30.8244V30.7801V30.7357V30.6913V30.647V30.6026V30.5582V30.5139V30.4695V30.4251V30.3808V30.3364V30.292V30.2477V30.2033V30.1589V30.1146V30.0702V30.0258V29.9815V29.9371V29.8927V29.8484V29.804V29.7597L21.7571 29.7154L21.7573 29.7153L21.8015 29.6711H21.8458H21.8902H21.9346H21.9789H22.0233H22.0677H22.112H22.1564H22.2008H22.2451H22.2895H22.3339H22.3782H22.4226H22.467H22.5113H22.5557H22.6001L22.6002 29.6709L22.6444 29.6267H22.6888H22.7332H22.7775H22.8219H22.8663L22.8664 29.6266L22.9106 29.5823H22.955H22.9994H23.0437H23.0881L23.0882 29.5822L23.1325 29.538H23.1768H23.2212L23.2213 29.5378L23.2655 29.4936H23.3099H23.3543L23.3544 29.4935L23.3986 29.4492H23.443H23.4874L23.4875 29.4491L23.5317 29.4049H23.5761L23.5762 29.4047L23.6205 29.3605H23.6648L23.665 29.3604L23.7092 29.3161H23.7536L23.7537 29.316L23.7979 29.2718H23.8423L23.8424 29.2716L23.8867 29.2274H23.931L23.9312 29.2273L23.9754 29.183L23.9755 29.1829L24.0198 29.1387H24.0641L24.0643 29.1385L24.1085 29.0943L24.1086 29.0942L24.1529 29.0499L24.153 29.0498L24.1972 29.0056H24.2416L24.2417 29.0054L24.286 28.9612L24.2861 28.9611L24.3303 28.9168L24.3305 28.9167L24.3747 28.8725L24.3748 28.8723L24.4191 28.8281L24.4192 28.828L24.4634 28.7837L24.4636 28.7836L24.5078 28.7394L24.5079 28.7392L24.5522 28.695L24.5523 28.6949L24.5965 28.6506L24.5967 28.6505L24.6409 28.6063L24.641 28.6061L24.6852 28.5619L24.6854 28.5618L24.7296 28.5176L24.7298 28.5174L24.774 28.4732L24.7741 28.473V28.4287L24.8183 28.3845L24.8185 28.3843L24.8627 28.3401L24.8628 28.34L24.9071 28.2957L24.9072 28.2956V28.2512L24.9514 28.207L24.9516 28.2069L24.9958 28.1626L24.9959 28.1625V28.1181L25.0402 28.0739L25.0403 28.0738L25.0845 28.0295L25.0847 28.0294V27.985L25.1289 27.9408L25.129 27.9407V27.8963L25.1733 27.8521L25.1734 27.8519L25.2176 27.8077L25.2178 27.8076V27.7632L25.262 27.719L25.2621 27.7188L25.3064 27.6746L25.3065 27.6745V27.6301L25.3507 27.5859L25.3509 27.5857V27.5414L25.3951 27.4971L25.3952 27.497L25.4395 27.4528L25.4396 27.4526V27.4083L25.4838 27.364L25.484 27.3639L25.5282 27.3197L25.5283 27.3195V27.2752L25.5726 27.231L25.5727 27.2308L25.6169 27.1866L25.6171 27.1864L25.6613 27.1422L25.6614 27.1421V27.0977L25.7057 27.0535L25.7058 27.0533L25.75 27.0091L25.7502 27.009L25.7944 26.9648L25.7945 26.9646L25.8388 26.9204L25.8389 26.9203L25.8831 26.876L25.8833 26.8759L25.9275 26.8317L25.9276 26.8315L25.9718 26.7873L25.972 26.7872L26.0162 26.7429L26.0164 26.7428L26.0606 26.6986L26.0607 26.6984L26.1049 26.6542L26.1051 26.6541L26.1493 26.6098L26.1494 26.6097L26.1937 26.5655L26.1938 26.5653L26.238 26.5211L26.2382 26.521L26.2824 26.4767H26.3268L26.3269 26.4766L26.3711 26.4324L26.3713 26.4322L26.4155 26.388L26.4156 26.3879L26.4599 26.3436H26.5042L26.5044 26.3435L26.5486 26.2993L26.5487 26.2991L26.593 26.2549H26.6373L26.6375 26.2548L26.6817 26.2105L26.6818 26.2104L26.7261 26.1662H26.7704L26.7706 26.166L26.8148 26.1218H26.8592L26.8593 26.1217L26.9035 26.0774H26.9479L26.948 26.0773L26.9923 26.0331H27.0366L27.0368 26.0329L27.081 25.9887H27.1254L27.1255 25.9886L27.1697 25.9443H27.2141L27.2142 25.9442L27.2585 25.9H27.3028H27.3472L27.3473 25.8998L27.3915 25.8556H27.4359H27.4803L27.4804 25.8555L27.5246 25.8113H27.569H27.6134H27.6577L27.6579 25.8111L27.7021 25.7669H27.7465H27.7908H27.8352L27.8353 25.7667L27.8796 25.7225H27.9239H27.9683H28.0127H28.057H28.1014H28.1458L28.1459 25.7224L28.1901 25.6782H28.2345H28.2789H28.3232H28.3676H28.412H28.4563H28.5007H28.5451H28.5894L28.6336 25.7224L28.6338 25.7225H28.6782H28.7225H28.7669H28.8112H28.8556H28.9H28.9443L28.9886 25.7667L28.9887 25.7669H29.0331H29.0774H29.1218H29.1662L29.2104 25.8111L29.2105 25.8113H29.2549H29.2993H29.3436L29.3879 25.8555L29.388 25.8556H29.4324H29.4767H29.5211L29.5653 25.8998L29.5655 25.9H29.6098H29.6542L29.6984 25.9442L29.6986 25.9443H29.7429L29.7872 25.9886L29.7873 25.9887H29.8317H29.876L29.9202 26.0329L29.9204 26.0331H29.9648L30.009 26.0773L30.0091 26.0774H30.0535L30.0977 26.1217L30.0978 26.1218H30.1422L30.1864 26.166L30.1866 26.1662H30.2309L30.2752 26.2104L30.2753 26.2105L30.3195 26.2548L30.3197 26.2549H30.364L30.4083 26.2991L30.4084 26.2993L30.4526 26.3435L30.4528 26.3436H30.4971L30.5414 26.3879L30.5415 26.388L30.5857 26.4322L30.5859 26.4324H30.6302L30.6745 26.4766L30.6746 26.4767L30.7188 26.521L30.719 26.5211L30.7632 26.5653L30.7633 26.5655L30.8076 26.6097L30.8077 26.6098L30.8519 26.6541L30.8521 26.6542L30.8963 26.6984L30.8964 26.6986L30.9407 26.7428L30.9408 26.7429L30.985 26.7872L30.9852 26.7873L31.0294 26.8315L31.0295 26.8317L31.0738 26.8759L31.0739 26.876L31.1181 26.9203L31.1183 26.9204L31.1625 26.9646L31.1626 26.9648L31.2069 27.009L31.207 27.0091L31.2512 27.0533L31.2514 27.0535L31.2956 27.0977L31.2957 27.0979L31.3399 27.1421V27.1864L31.3401 27.1866L31.3843 27.2308L31.3845 27.231L31.4287 27.2752L31.4288 27.2753L31.473 27.3195V27.3639L31.4732 27.364L31.5174 27.4083L31.5175 27.4084L31.5618 27.4526L31.5619 27.4528L31.6061 27.497V27.5414L31.6063 27.5415L31.6505 27.5857L31.6506 27.5859L31.6949 27.6301V27.6745L31.695 27.6746L31.7392 27.7188L31.7394 27.719L31.7836 27.7632V27.8076L31.7837 27.8077L31.828 27.8519L31.8281 27.8521L31.8723 27.8963L31.8725 27.8964L31.9167 27.9407V27.985L31.9168 27.9852L31.9611 28.0294L31.9612 28.0295L32.0054 28.0738V28.1181L32.0056 28.1183L32.0498 28.1625L32.0499 28.1626L32.0942 28.2069V28.2512L32.0943 28.2514L32.1385 28.2956L32.1387 28.2957L32.1829 28.34L32.183 28.3401L32.2273 28.3843V28.4287L32.2274 28.4288L32.2716 28.473L32.2718 28.4732L32.316 28.5174L32.3161 28.5176L32.3604 28.5618L32.3605 28.5619L32.4047 28.6061L32.4049 28.6063L32.4491 28.6505V28.6949L32.4492 28.695L32.4935 28.7392L32.4936 28.7394L32.5378 28.7836L32.538 28.7837L32.5822 28.828L32.5823 28.8281H32.6267L32.6709 28.8723L32.6711 28.8725L32.7153 28.9167L32.7154 28.9168L32.7596 28.9611L32.7598 28.9612L32.804 29.0054L32.8041 29.0056L32.8484 29.0498L32.8485 29.0499L32.8927 29.0942L32.8929 29.0943H32.9372L32.9815 29.1385L32.9816 29.1387L33.0258 29.1829L33.026 29.183H33.0703L33.1146 29.2273L33.1147 29.2274H33.1591L33.2033 29.2716L33.2034 29.2718L33.2477 29.316L33.2478 29.3161H33.2922L33.3364 29.3604L33.3365 29.3605H33.3809H33.4253L33.4695 29.4047L33.4696 29.4049H33.514L33.5582 29.4491L33.5584 29.4492H33.6027H33.6471L33.6913 29.4935L33.6915 29.4936H33.7358H33.7802L33.8244 29.5378L33.8246 29.538H33.8689H33.9133H33.9577L34.0019 29.5822L34.002 29.5823H34.0464H34.0908H34.1351H34.1795L34.2237 29.6266L34.2238 29.6267H34.2682H34.3126H34.3569H34.4013H34.4457L34.4899 29.6709L34.49 29.6711H34.5344H34.5788H34.6231H34.6675H34.7119H34.7562H34.8006H34.845H34.8893H34.9337H34.9781H35.0224H35.0668H35.1112H35.1555H35.1999H35.2443H35.2886H35.333H35.3774H35.4217H35.4661H35.5104H35.5548H35.5992H35.6435L35.6437 29.6709L35.6879 29.6267H35.7323H35.7766H35.821H35.8654H35.9097L35.9099 29.6266L35.9541 29.5823H35.9985H36.0428H36.0872H36.1316L36.1317 29.5822L36.1759 29.538H36.2203H36.2647H36.309L36.3092 29.5378L36.3534 29.4936H36.3978H36.4421L36.4423 29.4935L36.4865 29.4492H36.5309L36.531 29.4491L36.5752 29.4049H36.6196H36.664L36.6641 29.4047L36.7083 29.3605H36.7527L36.7528 29.3604L36.7971 29.3161L36.7972 29.316L36.8414 29.2718H36.8858L36.8859 29.2716L36.9301 29.2274H36.9745L36.9747 29.2273L37.0189 29.183L37.019 29.1829L37.0632 29.1387H37.1076L37.1077 29.1385L37.152 29.0943L37.1521 29.0942L37.1963 29.0499L37.1965 29.0498L37.2407 29.0056H37.2851L37.2852 29.0054L37.3294 28.9612L37.3296 28.9611L37.3738 28.9168L37.3739 28.9167L37.4182 28.8725L37.4183 28.8723L37.4625 28.8281L37.4627 28.828L37.5069 28.7837L37.507 28.7836L37.5513 28.7394L37.5514 28.7392L37.5956 28.695L37.5958 28.6949L37.64 28.6506L37.6401 28.6505L37.6844 28.6063L37.6845 28.6061L37.7287 28.5619L37.7289 28.5618V28.5174L37.7731 28.4732L37.7732 28.473L37.8175 28.4288L37.8176 28.4287L37.8618 28.3845L37.862 28.3843V28.34L37.9062 28.2957L37.9063 28.2956L37.9506 28.2514L37.9507 28.2512L37.9949 28.207L37.9951 28.2069V28.1625L38.0393 28.1183L38.0394 28.1181L38.0837 28.0739L38.0838 28.0738V28.0294L38.128 27.9852L38.1282 27.985L38.1724 27.9408L38.1725 27.9407V27.8963L38.2167 27.8521L38.2169 27.8519L38.2611 27.8077L38.2613 27.8076V27.7632L38.3055 27.719L38.3056 27.7188L38.3498 27.6746L38.35 27.6745V27.6301L38.3942 27.5859L38.3944 27.5857L38.4386 27.5415L38.4387 27.5414V27.497L38.4829 27.4528L38.4831 27.4526L38.5273 27.4084L38.5274 27.4083L38.5717 27.364L38.5718 27.3639V27.3195L38.616 27.2753L38.6162 27.2752L38.6604 27.231L38.6605 27.2308V27.1864L38.7048 27.1422L38.7049 27.1421L38.7491 27.0979L38.7493 27.0977L38.7935 27.0535L38.7936 27.0533L38.8379 27.0091L38.838 27.009V26.9646L38.8822 26.9204L38.8824 26.9203L38.9266 26.876L38.9267 26.8759L38.971 26.8317L38.9711 26.8315L39.0153 26.7873L39.0155 26.7872L39.0597 26.7429L39.0598 26.7428L39.1041 26.6986L39.1042 26.6984L39.1484 26.6542L39.1486 26.6541L39.1928 26.6098L39.1929 26.6097L39.2372 26.5655L39.2373 26.5653L39.2815 26.5211L39.2817 26.521L39.3259 26.4767L39.326 26.4766L39.3703 26.4324H39.4146L39.4148 26.4322L39.459 26.388L39.4591 26.3879L39.5034 26.3436L39.5035 26.3435L39.5477 26.2993H39.5921L39.5922 26.2991L39.6364 26.2549L39.6366 26.2548L39.6808 26.2105H39.7252L39.7253 26.2104L39.7695 26.1662L39.7697 26.166L39.8139 26.1218H39.8583L39.8584 26.1217L39.9026 26.0774L39.9028 26.0773L39.947 26.0331H39.9914L39.9915 26.0329L40.0357 25.9887H40.0801L40.0802 25.9886L40.1245 25.9443H40.1688L40.169 25.9442L40.2132 25.9H40.2576H40.3019L40.3021 25.8998L40.3463 25.8556H40.3907H40.435L40.4352 25.8555L40.4794 25.8113H40.5238L40.5239 25.8111L40.5681 25.7669H40.6125H40.6569H40.7012L40.7014 25.7667L40.7456 25.7225H40.79H40.8343H40.8787H40.923L40.9232 25.7224L40.9674 25.6782H41.0118H41.0561H41.1005H41.1449H41.1892H41.2336L41.2337 25.678L41.278 25.6338H41.3223H41.3667H41.4111H41.4554H41.4998L41.544 25.678L41.5442 25.6782H41.5885H41.6329H41.6773H41.7216H41.766H41.8104H41.8547H41.8991H41.9435L41.9877 25.7224L41.9878 25.7225H42.0322H42.0766H42.1209H42.1653L42.2095 25.7667L42.2097 25.7669H42.254H42.2984H42.3427L42.387 25.8111L42.3871 25.8113H42.4315H42.4758L42.5201 25.8555L42.5202 25.8556H42.5646H42.6089L42.6532 25.8998L42.6533 25.9H42.6977L42.7419 25.9442L42.742 25.9443H42.7864H42.8308L42.875 25.9886L42.8751 25.9887H42.9195L42.9637 26.0329L42.9639 26.0331H43.0082L43.0525 26.0773L43.0526 26.0774L43.0968 26.1217L43.097 26.1218H43.1413L43.1856 26.166L43.1857 26.1662H43.2301L43.2743 26.2104L43.2744 26.2105L43.3187 26.2548L43.3188 26.2549H43.3632L43.4074 26.2991L43.4075 26.2993L43.4518 26.3435L43.4519 26.3436H43.4963L43.5405 26.3879L43.5406 26.388L43.5848 26.4322L43.585 26.4324L43.6292 26.4766L43.6294 26.4767H43.6737L43.7179 26.521L43.7181 26.5211L43.7623 26.5653L43.7624 26.5655L43.8067 26.6097L43.8068 26.6098L43.851 26.6541L43.8512 26.6542L43.8954 26.6984L43.8955 26.6986L43.9398 26.7428L43.9399 26.7429H43.9843L44.0285 26.7872L44.0286 26.7873L44.0729 26.8315L44.073 26.8317L44.1172 26.8759L44.1174 26.876L44.1616 26.9203L44.1617 26.9204L44.206 26.9646L44.2061 26.9648L44.2503 27.009V27.0533L44.2505 27.0535L44.2947 27.0977L44.2948 27.0979L44.3391 27.1421L44.3392 27.1422L44.3834 27.1864L44.3836 27.1866L44.4278 27.2308L44.4279 27.231L44.4722 27.2752V27.3195L44.4723 27.3197L44.5165 27.3639L44.5167 27.364L44.5609 27.4083V27.4526L44.561 27.4528L44.6053 27.497L44.6054 27.4971L44.6496 27.5414V27.5857L44.6498 27.5859L44.694 27.6301V27.6745L44.6941 27.6746L44.7384 27.7188L44.7385 27.719L44.7827 27.7632V27.8076L44.7829 27.8077L44.8271 27.8519L44.8272 27.8521L44.8715 27.8963V27.9407L44.8716 27.9408L44.9158 27.985V28.0294L44.916 28.0295L44.9602 28.0738L44.9603 28.0739L45.0045 28.1181V28.1625L45.0047 28.1626L45.0489 28.2069L45.049 28.207L45.0933 28.2512V28.2956L45.0934 28.2957L45.1376 28.34L45.1378 28.3401L45.182 28.3843L45.1821 28.3845L45.2264 28.4287V28.473L45.2265 28.4732L45.2707 28.5174L45.2709 28.5176L45.3151 28.5618L45.3152 28.5619L45.3595 28.6061L45.3596 28.6063L45.4038 28.6505L45.404 28.6506L45.4482 28.6949L45.4483 28.695L45.4926 28.7392L45.4927 28.7394L45.5369 28.7836L45.5371 28.7837L45.5813 28.828L45.5814 28.8281L45.6257 28.8723L45.6258 28.8725L45.67 28.9167L45.6702 28.9168L45.7144 28.9611L45.7145 28.9612L45.7588 29.0054L45.7589 29.0056H45.8033L45.8475 29.0498L45.8476 29.0499L45.8919 29.0942L45.892 29.0943H45.9364L45.9806 29.1385L45.9807 29.1387L46.025 29.1829L46.0251 29.183H46.0695L46.1137 29.2273L46.1138 29.2274L46.1581 29.2716L46.1582 29.2718H46.2026L46.2468 29.316L46.2469 29.3161H46.2913L46.3355 29.3604L46.3357 29.3605H46.38L46.4242 29.4047L46.4244 29.4049H46.4687H46.5131L46.5573 29.4491L46.5575 29.4492H46.6018L46.6461 29.4935L46.6462 29.4936H46.6906H46.7349H46.7793L46.8235 29.5378L46.8237 29.538H46.868H46.9124L46.9566 29.5822L46.9568 29.5823H47.0011H47.0455H47.0899H47.1342L47.1785 29.6266L47.1786 29.6267H47.223H47.2673H47.3117H47.3561H47.4004L47.4447 29.6709L47.4448 29.6711H47.4892H47.5335H47.5779H47.6223H47.6666H47.711H47.7554H47.7997H47.8441H47.8884H47.9328H47.9772H48.0215H48.0659H48.1103H48.1546H48.199H48.2434L48.2876 29.7153V29.7597V29.804V29.8484V29.8927V29.9371V29.9815V30.0258V30.0702V30.1146V30.1589V30.2033V30.2477V30.292V30.3364V30.3808V30.4251V30.4695V30.5139V30.5582V30.6026V30.647V30.6913V30.7357V30.7801V30.8244V30.8688V30.9132V30.9575V31.0019V31.0463V31.0906V31.135V31.1793V31.2237V31.2681V31.3124V31.3568V31.4012V31.4455V31.4899V31.5343V31.5786V31.623V31.6674V31.7117V31.7561V31.8005V31.8448V31.8892V31.9336V31.9779V32.0223V32.0667V32.111V32.1554V32.1998V32.2441V32.2885V32.3329V32.3772V32.4216V32.466V32.5103V32.5547V32.599V32.6434V32.6878V32.7321V32.7765V32.8209V32.8652V32.9096V32.954V32.9983V33.0427V33.0871V33.1314V33.1758V33.2202V33.2645V33.3089V33.3533V33.3976V33.442V33.4864V33.5307V33.5751V33.6195L48.2434 33.6637Z" fill="white"/>
<path d="M35.0013 64.1654C46.668 52.4987 58.3346 42.052 58.3346 29.1654C58.3346 16.2787 47.8879 5.83203 35.0013 5.83203C22.1147 5.83203 11.668 16.2787 11.668 29.1654C11.668 42.052 23.3346 52.4987 35.0013 64.1654Z" fill="#51CC4B" stroke="white" stroke-width="2.44186" stroke-linecap="round" stroke-linejoin="round"/>
<path d="M43.9824 19.1064H44.2314L44.2383 19.1123L44.2734 19.1484H44.4395L44.4453 19.1543L44.4814 19.1895H44.6475L44.6533 19.1963L44.6885 19.2314H44.8135L44.8545 19.2725H44.9385L44.9443 19.2793L44.9795 19.3145H45.1045L45.1104 19.3203L45.1455 19.3564H45.1875L45.2285 19.3975H45.3115L45.3184 19.4033L45.3535 19.4395H45.3945L45.4014 19.4453L45.4365 19.4805H45.5195L45.5615 19.5225H45.6025L45.6084 19.5283L45.6445 19.5635H45.6855L45.7275 19.6055H45.7686L45.7754 19.6113L45.8105 19.6465H45.8516L45.8936 19.6885H45.9346L45.9414 19.6943L45.9824 19.7354V19.7363L46.0186 19.7715H46.0596L46.1006 19.8125H46.1426L46.1484 19.8193L46.1904 19.8604L46.2256 19.8965H46.2676L46.3145 19.9434H46.3154L46.3506 19.9795H46.3916L46.3984 19.9854L46.5166 20.1035H46.5586L46.5645 20.1094L46.6055 20.1514L46.6475 20.1924V20.1934L46.6826 20.2285H46.7246L46.7715 20.2754V20.2764L46.8135 20.3174L46.8535 20.3584H46.8545V20.3594H46.8555L47.2285 20.7324V20.7334L47.2705 20.7744L47.2764 20.7803V20.8223L47.3945 20.9404L47.4014 20.9463V20.9883L47.5254 21.1123V21.1533L47.5615 21.1895L47.6025 21.2314L47.6084 21.2373V21.2783L47.6855 21.3555L47.6914 21.3623V21.4033L47.7334 21.4453V21.4863L47.7686 21.5225L47.8105 21.5635L47.8164 21.5693V21.6113L47.8516 21.6465L47.8584 21.6523V21.6943L47.8936 21.7295L47.8994 21.7363V21.7773L47.9414 21.8193V21.9023L47.9824 21.9434V21.9844L48.0244 22.0264V22.0684L48.0654 22.1094V22.1924L48.1074 22.2344V22.3174L48.1426 22.3525L48.1484 22.3594V22.4834L48.1904 22.5254V22.6494L48.2256 22.6855L48.2314 22.6914V22.8564L48.2676 22.8926L48.2734 22.8994V23.1484L48.3086 23.1836L48.3154 23.1895V24.7021L48.2734 24.7441V24.9521L48.2676 24.958L48.2314 24.9932V25.1592L48.2256 25.166L48.1904 25.2012V25.3252L48.1846 25.332L48.1484 25.3672V25.4502L48.1074 25.4912V25.5752L48.1016 25.5811L48.0654 25.6162V25.6992L48.0596 25.7061L48.0244 25.7412V25.8242L47.9824 25.8662V25.9492L47.9414 25.9902V26.0322L47.9346 26.0381L47.8994 26.0732V26.1152L47.8936 26.1211L47.8584 26.1553V26.1982L47.8516 26.2041L47.8164 26.2393V26.2812L47.7754 26.3223V26.3643L47.7686 26.3701L47.7275 26.4121L47.6914 26.4473V26.4893L47.6504 26.5303V26.5723L47.6445 26.5781L47.6025 26.6191L47.5674 26.6543V26.6963L47.5615 26.7031L47.5195 26.7441L47.4844 26.7793V26.8213L47.3955 26.9102H47.3945L47.3535 26.9521L47.3184 26.9863V27.0293L47.3115 27.0352L47.1045 27.2422V27.2432L47.0625 27.2842L47.0215 27.3252V27.3262L46.9795 27.3672L46.9385 27.4092L46.8965 27.4502L46.8555 27.4922H46.8545L46.6475 27.6992L46.6416 27.7061H46.5986L46.5645 27.7412L46.5225 27.7822V27.7832L46.4814 27.8242L46.4746 27.8301H46.4336L46.3984 27.8652H46.3975L46.3984 27.8662L46.3564 27.9072L46.3154 27.9492L46.3086 27.9551H46.2676L46.2314 27.9902L46.1904 28.0322L46.1846 28.0381H46.1426L46.1016 28.0791H46.0596L46.0244 28.1152L45.9824 28.1562L45.9766 28.1621H45.9355L45.8936 28.2041H45.8516L45.8164 28.2393L45.8105 28.2461H45.7676L45.7334 28.2812L45.7275 28.2871H45.6855L45.6504 28.3223L45.6445 28.3291H45.6025L45.5615 28.3701H45.5195L45.4844 28.4053L45.4785 28.4121H45.4365L45.4014 28.4473L45.3945 28.4531H45.3115L45.2764 28.4893L45.2705 28.4951H45.2285L45.1875 28.5361H45.1045L45.0625 28.5781H44.9795L44.9385 28.6191H44.8555L44.8135 28.6611H44.7305L44.6953 28.6963L44.6885 28.7021H44.5645L44.5225 28.7441H44.3984L44.3623 28.7793L44.3564 28.7861H44.1475L44.1133 28.8213L44.1074 28.8271H43.8584L43.8223 28.8623L43.8164 28.8691H43.3184L43.2822 28.9043L43.2764 28.9102H40.2559V31.6816L40.1934 31.7441L40.1787 31.7295L40.1377 31.6875L40.0957 31.6465V31.6455L40.0605 31.6104H40.0186L39.9717 31.5635V31.5625L39.9297 31.5215L39.8887 31.4795H39.8877V31.4785L39.8467 31.4385L39.8057 31.3965H39.8047L39.5146 31.1064V31.1055L39.4727 31.0645L39.4316 31.0234V31.0225L39.3896 30.9814L39.3486 30.9395H39.3477L39.3066 30.8984L39.2656 30.8564H39.2646L38.9746 30.5664V30.5654L38.9326 30.5244L38.8916 30.4834V30.4824L38.8496 30.4414L38.8086 30.3994H38.8076L38.7666 30.3584L38.7256 30.3164H38.7246L38.4346 30.0264V30.0254L38.3926 29.9844L38.3516 29.9434V29.9424H38.3506V29.9414L38.3096 29.9014L38.2686 29.8594H38.2676L38.2266 29.8184L38.1855 29.7764H38.1846L37.8945 29.4863V29.4854L37.8525 29.4443L37.8115 29.4033V29.4023L37.7695 29.3613L37.7285 29.3193H37.7275L37.6865 29.2783L37.6455 29.2363H37.6445L37.3545 28.9463V28.9453L37.3125 28.9043L37.2715 28.8633V28.8623H37.2705V28.8613L37.2295 28.8213L37.1885 28.7793H37.1875L37.1465 28.7383L37.1055 28.6963H37.1045L37.0576 28.6494V24.2158H31.9766L32.2734 24.5127V24.5137L32.3154 24.5547L32.3984 24.6377L32.4395 24.6797H32.4404L32.8135 25.0527V25.0537L32.8555 25.0947L32.8965 25.1357V25.1367H32.8975L32.9385 25.1777L32.9795 25.2197H32.9805L33.3535 25.5928V25.5938L33.3955 25.6348L33.4365 25.6758V25.6768H33.4375L33.4785 25.7178L33.5195 25.7598H33.5205L33.8936 26.1328V26.1338L33.9355 26.1748L33.9766 26.2168H33.9775L34.0186 26.2578L34.0596 26.2998H34.0605L34.4336 26.6729V26.6738L34.4756 26.7148L34.5156 26.7559H34.5166L34.5586 26.7979L34.5996 26.8398H34.6006L34.9736 27.2129V27.2139L35.0156 27.2549L35.0566 27.2969H35.0576L35.0986 27.3379L35.1396 27.3799H35.1406L35.5137 27.7529V27.7539L35.5557 27.7949L35.5967 27.8369H35.5977L35.6387 27.8779L35.6797 27.9199H35.6807L36.0537 28.293V28.2939L36.0957 28.335L36.1367 28.377H36.1377L36.1787 28.418L36.2197 28.46H36.2207L36.5107 28.75V28.751L36.5527 28.792L36.5938 28.833V28.834L36.6357 28.875L36.6768 28.917H36.6777L36.7188 28.958L36.7598 29H36.7607L37.0508 29.29V29.291L37.0928 29.332L37.1338 29.373V29.374L37.1758 29.415L37.2168 29.457H37.2178L37.5908 29.8301V29.8311L37.6328 29.8721L37.6738 29.9131V29.9141L37.7158 29.9551L37.7568 29.9971H37.7578L38.1309 30.3701V30.3711L38.1729 30.4121L38.2139 30.4531V30.4541L38.2559 30.4951L38.2969 30.5371H38.2979L38.6709 30.9102V30.9111L38.7129 30.9521L38.7539 30.9932V30.9941L38.7959 31.0352L38.8369 31.0771H38.8379L39.2109 31.4502V31.4512L39.2529 31.4922L39.2939 31.5332V31.5342L39.3359 31.5752L39.377 31.6172H39.3779L39.751 31.9902V31.9912L39.793 32.0322L39.876 32.1152L39.917 32.1572H39.918L40.291 32.5303V32.5312L40.333 32.5723L40.416 32.6553L40.4561 32.6963H40.457L40.832 33.0713H40.8311L40.873 33.1123L40.9561 33.1953L40.9961 33.2363H40.9971L41.3721 33.6113H41.3711L41.4131 33.6523L41.4961 33.7354L41.5361 33.7764H41.5371L41.9111 34.1504V34.1514L41.9531 34.1924L42.0361 34.2754L42.0771 34.3174H42.0781L42.4512 34.6904V34.6914L42.4932 34.7324L42.5342 34.7734V34.7744H42.5352L42.5762 34.8154L42.6172 34.8574H42.6182L42.9912 35.2305V35.2314L43.0332 35.2725L43.0732 35.3135H43.0742V35.3145H43.0752L43.1162 35.3555L43.1572 35.3975H43.1582L43.5312 35.7705V35.7715L43.5732 35.8125L43.6133 35.8535H43.6143V35.8545H43.6152L43.6562 35.8955L43.6973 35.9375H43.6982L44.0713 36.3105V36.3115L44.1133 36.3525L44.1533 36.3936H44.1543V36.3945H44.1553L44.1963 36.4355L44.2373 36.4775H44.2383L44.6113 36.8506V36.8516L44.6533 36.8926L44.6934 36.9336H44.6943V36.9346H44.6953L44.7363 36.9756L44.7773 37.0176H44.7783L45.1514 37.3906V37.3916L45.1934 37.4326L45.2344 37.4746H45.2354L45.2764 37.5156L45.3174 37.5576H45.3184L45.6084 37.8477V37.8486L45.6504 37.8896L45.6914 37.9307V37.9316L45.7334 37.9727L45.7744 38.0146H45.7754L45.8223 38.0615V38.1201L45.8164 38.127L45.7754 38.168H45.7744L45.7393 38.2031V38.2451L45.5312 38.4531V38.4941L45.5254 38.501L45.4844 38.542L45.4424 38.583V38.584L45.3242 38.7021V38.7441L45.3174 38.75L45.2764 38.791L45.2354 38.833H45.2344L45.1162 38.9512V38.9932L45.1104 38.999L45.0684 39.0391L45.0693 39.04H45.0684V39.041L45.0273 39.082L44.9854 39.123V39.124L44.9082 39.2012V39.2422L44.9023 39.248L44.8613 39.29L44.8193 39.3311L44.7783 39.373H44.7773L44.7012 39.4492V39.4912L44.6943 39.4971L44.6533 39.5391L44.6113 39.5801V39.5811L44.5703 39.6221L44.5283 39.6631V39.6641L44.4395 39.7529H44.3809L44.292 39.6641V39.6631L44.25 39.6221L44.209 39.5811V39.5801L44.167 39.5391L44.126 39.4971H44.125L44.084 39.4561L44.043 39.4141H44.042L43.752 39.124V39.123L43.71 39.082L43.6689 39.041V39.04H43.668V39.0391L43.627 38.999L43.5859 38.957H43.585L43.5439 38.916L43.5029 38.874H43.502L43.2119 38.584V38.583L43.1699 38.542L43.1289 38.501V38.5L43.0869 38.459L43.0459 38.417H43.0449L43.0039 38.376L42.9629 38.334H42.9619L42.6719 38.0439V38.043L42.6299 38.002L42.5889 37.9609V37.96L42.5469 37.9189L42.5059 37.877H42.5049L42.4639 37.8359L42.4229 37.7939H42.4219L42.1318 37.5039V37.5029L42.0898 37.4619L42.0488 37.4209V37.4199L42.0068 37.3789L41.9658 37.3369H41.9648L41.5918 36.9639V36.9629L41.5498 36.9219L41.5088 36.8809V36.8799H41.5078V36.8789L41.4668 36.8389L41.4258 36.7969H41.4248L41.0518 36.4238V36.4229L41.0098 36.3818L40.9688 36.3408V36.3398H40.9678V36.3389L40.9268 36.2988L40.8857 36.2568H40.8848L40.5117 35.8838V35.8828L40.4697 35.8418L40.4287 35.8008V35.7998H40.4277V35.7988L40.3867 35.7588L40.3457 35.7168H40.3447L39.9717 35.3438V35.3428L39.9297 35.3018L39.8887 35.2607V35.2598H39.8877V35.2588L39.8467 35.2188L39.8057 35.1768H39.8047L39.4316 34.8037V34.8027L39.3896 34.7617L39.3486 34.7197H39.3477L39.3066 34.6787L39.2656 34.6367H39.2646L38.8916 34.2637V34.2627L38.8496 34.2217L38.8086 34.1797H38.8076L38.7666 34.1387L38.7256 34.0967H38.7246L38.3516 33.7236V33.7227H38.3506V33.7217L38.3096 33.6816L38.2686 33.6396H38.2676L38.2266 33.5986L38.1924 33.5635H38.1494L38.1436 33.5566L38.1016 33.5156L38.0605 33.4736L38.0186 33.4326L37.9775 33.3906L37.9355 33.3496L37.8945 33.3076L37.8525 33.2666L37.8115 33.2246H37.8105V33.2236L37.7695 33.1836V33.1826L37.7285 33.1416H37.7275L37.6865 33.0996L37.6455 33.0586H37.6445L37.6035 33.0166L37.5615 32.9756L37.5205 32.9336L37.4785 32.8926L37.4375 32.8506L37.3955 32.8096L37.3545 32.7676L37.3125 32.7266L37.2715 32.6846H37.2705V32.6836L37.2295 32.6436V32.6426L37.1885 32.6016H37.1875L37.1465 32.5596L37.1055 32.5186H37.1045L37.0635 32.4766L37.0215 32.4355L36.9805 32.3936L36.9385 32.3525L36.8975 32.3105L36.8555 32.2695L36.8145 32.2275L36.7725 32.1865V32.1855L36.7314 32.1445L36.6895 32.1035V32.1025L36.6484 32.0615H36.6475L36.6064 32.0195L36.5654 31.9785H36.5645L36.5234 31.9365L36.4814 31.8955L36.4404 31.8535L36.3984 31.8125L36.3574 31.7705L36.3154 31.7295L36.2744 31.6875L36.2324 31.6465V31.6455L36.1914 31.6045L36.1494 31.5635V31.5625L36.1143 31.5273H36.0723L36.0664 31.5215L36.0254 31.4795H36.0244L35.6514 31.1064V31.1055L35.6094 31.0645L35.5684 31.0234V31.0225H35.5674L35.5264 30.9814L35.4854 30.9395H35.4844L35.1113 30.5664V30.5654L35.0693 30.5244L35.0283 30.4834V30.4824H35.0273L34.9863 30.4414L34.9453 30.3994H34.9443L34.5713 30.0264V30.0254L34.5293 29.9844L34.4883 29.9434V29.9424H34.4873L34.4463 29.9014L34.4053 29.8594H34.4043L34.0303 29.4854V29.4844L33.9893 29.4443L33.9482 29.4033V29.4023H33.9473L33.9062 29.3613L33.8652 29.3193H33.8643L33.4912 28.9463V28.9453L33.4492 28.9043L33.4082 28.8633V28.8623H33.4072L33.3662 28.8213L33.3252 28.7793H33.3242L32.998 28.4531H32.957L32.9512 28.4473L32.9092 28.4062V28.4053L32.8682 28.3643H32.8672L32.8262 28.3232V28.3223L32.7842 28.2812L32.7432 28.2393L32.7012 28.1982L32.6602 28.1562L32.6182 28.1152L32.5771 28.0732L32.5352 28.0322L32.4941 27.9902L32.4521 27.9492L32.4111 27.9072L32.3691 27.8662V27.8652L32.3281 27.8242H32.3271L32.2861 27.7832V27.7822L32.2441 27.7412L32.2031 27.6992L32.1611 27.6582L32.1201 27.6162L32.0781 27.5752L32.0371 27.5332L31.9951 27.4922L31.9541 27.4502L31.9121 27.4092L31.8711 27.3672L31.8291 27.3262V27.3252L31.7881 27.2842H31.7871L31.7461 27.2432V27.2422L31.7041 27.2012L31.6631 27.1592L31.6211 27.1182L31.5801 27.0762L31.5381 27.0352L31.4971 26.9932L31.4551 26.9521L31.4141 26.9102L31.3721 26.8691L31.3311 26.8271L31.2891 26.7861V26.7852L31.248 26.7441H31.2471L31.2061 26.7031V26.7021L31.1641 26.6611L31.123 26.6191L31.0811 26.5781L31.04 26.5361L30.998 26.4951L30.957 26.4531L30.915 26.4121L30.874 26.3701L30.832 26.3291L30.791 26.2871L30.749 26.2461V26.2451L30.708 26.2041H30.707L30.666 26.1631V26.1621L30.624 26.1211L30.583 26.0791L30.541 26.0381L30.5 25.9961L30.458 25.9551L30.417 25.9131L30.375 25.8721L30.334 25.8301L30.292 25.7891L30.251 25.7471H30.25L30.209 25.7061V25.7051L30.168 25.6641H30.167L30.126 25.623V25.6221L30.084 25.5811L30.043 25.5391L30.001 25.498L29.96 25.4561L29.918 25.415L29.877 25.373L29.835 25.332L29.7939 25.29L29.752 25.249L29.7109 25.207H29.71L29.6689 25.166V25.165L29.6279 25.124H29.627L29.5859 25.082L29.5439 25.041L29.5029 24.999L29.4609 24.958L29.4199 24.916L29.3779 24.875L29.3369 24.833L29.3008 24.7979H29.2598L29.1699 24.708V24.709L29.1289 24.667L28.8857 24.4238H28.873V24.4951L28.832 24.5361V24.5781L28.8262 24.584L28.79 24.6191V24.7021L28.7842 24.709L28.749 24.7441V24.8271L28.707 24.8691V24.9102L28.666 24.9512V25.0352L28.6592 25.041L28.624 25.0762V25.1182L28.6182 25.124L28.583 25.1582V25.2422L28.541 25.2842V25.3252L28.5352 25.332L28.5 25.3662V25.4502L28.4932 25.4561L28.458 25.4912V25.5332L28.416 25.5752V25.6582L28.375 25.6992V25.7412L28.333 25.7832V25.8662L28.292 25.9072V25.9492L28.2861 25.9551L28.25 25.9902V26.0732L28.209 26.1143V26.1562L28.2031 26.1631L28.167 26.1982V26.2812L28.126 26.3223V26.3643L28.1191 26.3701L28.084 26.4053V26.4893L28.0781 26.4951L28.043 26.5293V26.6133L28.0361 26.6191L28.001 26.6543V26.6963L27.9951 26.7031L27.96 26.7373V26.8213L27.9531 26.8271L27.918 26.8623V26.9043L27.876 26.9463V27.0293L27.835 27.0703V27.1123L27.8291 27.1182L27.793 27.1533V27.2363L27.7871 27.2432L27.752 27.2783V27.3193L27.7461 27.3262L27.71 27.3613V27.4443L27.6689 27.4854V27.5273L27.627 27.5693V27.6523L27.5859 27.6934V27.7354L27.5791 27.7412L27.5439 27.7764V27.8594L27.5381 27.8662L27.5029 27.9004V27.9424L27.4609 27.9844V28.0674L27.4189 28.1094V28.1924L27.3779 28.2334V28.2754L27.3721 28.2812L27.3359 28.3164V28.3584L27.3242 28.3701H32.4756L32.4814 28.377L32.5234 28.418L32.5645 28.46L32.6064 28.501L32.6475 28.543L32.6895 28.584L32.7305 28.626L32.7725 28.667L32.8135 28.709L32.8555 28.75V28.751L32.8965 28.792H32.8975L32.9385 28.833V28.834L32.9795 28.875H32.9805L33.0215 28.917L33.0635 28.958L33.1045 29L33.1465 29.041L33.1875 29.083L33.2295 29.124L33.2705 29.166L33.3125 29.207L33.3535 29.249L33.3955 29.29L33.4014 29.2969V29.3379L33.4785 29.415L33.5186 29.4561H33.5195L33.8936 29.8301V29.8311L33.9355 29.8721L34.0186 29.9551L34.0596 29.9971H34.0605L34.3506 30.2871L34.3564 30.2939V30.334L34.3926 30.3701V30.3711L34.4336 30.4121L34.4756 30.4531V30.4541L34.5166 30.4951H34.5176L34.5586 30.5371L34.5996 30.5781H34.6006L34.6416 30.6201L34.6836 30.6611L34.7246 30.7031L34.7666 30.7441L34.8076 30.7861L34.8496 30.8271L34.8906 30.8691L34.9326 30.9102V30.9111L34.9736 30.9521L35.0156 30.9932V30.9941L35.0566 31.0352H35.0576L35.0986 31.0771L35.1396 31.1182H35.1406L35.1816 31.1602L35.2236 31.2012L35.2646 31.2432L35.3066 31.2842L35.3477 31.3262L35.3896 31.3672L35.3955 31.374V31.415L35.4307 31.4502V31.4512L35.4727 31.4922L35.5137 31.5332V31.5342L35.5557 31.5752L35.5967 31.6172H35.5977L35.6387 31.6582L35.6797 31.7002H35.6807L35.9707 31.9902V31.9912L36.0127 32.0322L36.0537 32.0732V32.0742L36.0957 32.1152L36.1367 32.1572H36.1377L36.1787 32.1982L36.2197 32.2402H36.2207L36.5107 32.5303V32.5312L36.5527 32.5723L36.5938 32.6133V32.6143L36.6357 32.6553L36.6768 32.6973H36.6777L36.7188 32.7383L36.7598 32.7803H36.7607L37.0508 33.0703V33.0713L37.0928 33.1123L37.1338 33.1533V33.1543L37.1758 33.1953L37.2168 33.2373H37.2178L37.5908 33.6104V33.6113L37.6328 33.6523L37.6738 33.6934V33.6943L37.7158 33.7354L37.7559 33.7764H37.7568V33.7773H37.7578L38.1309 34.1504V34.1514L38.1729 34.1924L38.2139 34.2334V34.2344L38.2559 34.2754L38.2969 34.3174H38.2979L38.6709 34.6904V34.6914L38.7129 34.7324L38.7539 34.7734V34.7744L38.7959 34.8154L38.8369 34.8574H38.8379L39.2109 35.2305V35.2314L39.2529 35.2725L39.2939 35.3145L39.3359 35.3555L39.377 35.3975H39.3779L39.751 35.7705V35.7715L39.793 35.8125L39.833 35.8535H39.834V35.8545H39.835L39.876 35.8955L39.917 35.9375H39.918L40.291 36.3105V36.3115L40.333 36.3525L40.373 36.3936H40.374V36.3945H40.375L40.416 36.4355L40.457 36.4775H40.458L40.8311 36.8506V36.8516L40.873 36.8926L40.9131 36.9336H40.9141V36.9346H40.915L40.9561 36.9756L40.9971 37.0176H40.998L41.3711 37.3906V37.3916L41.4131 37.4326L41.4541 37.4746H41.4551L41.4961 37.5156L41.5371 37.5576H41.5381L41.8281 37.8477V37.8486L41.8701 37.8896L41.9111 37.9307V37.9316L41.9531 37.9727L41.9941 38.0146H41.9951L42.0361 38.0557L42.0771 38.0977H42.0781L42.3682 38.3877V38.3887L42.4102 38.4297L42.4512 38.4707V38.4717L42.4932 38.5127L42.5342 38.5547H42.5352L42.5762 38.5957L42.6172 38.6377H42.6182L42.9082 38.9277V38.9287L42.9502 38.9697L42.9912 39.0107V39.0117L43.0332 39.0527L43.0732 39.0938H43.0742V39.0947H43.0752L43.1162 39.1357L43.1572 39.1777H43.1582L43.4482 39.4678L43.4541 39.4746V39.5146L43.4902 39.5508V39.5518L43.5254 39.5869H43.5674L43.5732 39.5928L43.6143 39.6348L43.6211 39.6406V39.6699H43.6504L43.6562 39.6758L43.6973 39.7178H43.6982L43.8789 39.8984L43.8643 39.9131L43.8281 39.9482V39.9902L43.7871 40.0312V40.0732L43.7812 40.0791L43.7451 40.1143V40.1562L43.6621 40.2393V40.2803L43.6562 40.2871L43.6152 40.3281H43.6143L43.5732 40.3701L43.5312 40.4111L43.4902 40.4531L43.4482 40.4941L43.4072 40.5361L43.3652 40.5771L43.3594 40.584H43.3174L43.2344 40.667H43.1934L43.1582 40.7021H43.1572L43.1162 40.7432L43.1104 40.75H43.0684L43.0273 40.791H42.9854L42.9502 40.8271L42.9443 40.833H42.8613L42.8252 40.8682L42.8193 40.874H42.7363L42.7012 40.9102L42.6943 40.916H42.4043L42.3682 40.9512L42.3535 40.9658L42.3037 40.916H41.9717L41.9648 40.9102L41.9297 40.874H41.8057L41.7988 40.8682L41.7637 40.833H41.7217L41.7158 40.8271L41.6807 40.791H41.5977L41.5918 40.7852L41.5498 40.7441V40.7432L41.5146 40.708H41.4727L41.4316 40.667H41.3896L41.3838 40.6602L41.3418 40.6191L41.3008 40.5771L41.2588 40.5361L41.2236 40.5H41.1816L41.0518 40.3701L41.0449 40.3643V40.3213L41.0098 40.2871L40.9688 40.2451H40.9678V40.2441L40.9268 40.2041L40.9209 40.1973V40.1562L40.8379 40.0732V40.0312L40.8018 39.9961L40.7959 39.9902V39.9482L40.7549 39.9072V39.8242L40.7129 39.7822V39.6572L40.6719 39.6162V39.2842L40.6299 39.2422V37.3438H28.5V39.3252L28.4932 39.3311L28.458 39.3662V39.6162L28.4521 39.6221L28.416 39.6572V39.7822L28.375 39.8232V39.9072L28.3691 39.9131L28.333 39.9482V39.9902L28.292 40.0312V40.0732L28.2861 40.0791L28.2441 40.1201V40.1211L28.209 40.1562V40.1973L28.2031 40.2041L28.1611 40.2451L28.1201 40.2871H28.1191L28.043 40.3633V40.4053L28.0361 40.4111L27.9951 40.4531L27.9893 40.459H27.9473L27.7393 40.667H27.6982L27.6631 40.7021L27.6562 40.708H27.6152L27.5732 40.75H27.5322L27.4961 40.7852L27.4902 40.791H27.4492L27.4072 40.833H27.3242L27.2832 40.874H27.2002L27.1582 40.916H26.4346L26.4287 40.9102L26.3936 40.874H26.3105L26.3037 40.8682L26.2686 40.833H26.1855L26.1436 40.791H26.1025L26.0967 40.7852L26.0605 40.75H26.0195L26.0137 40.7432L25.9775 40.708H25.9365L25.9297 40.7021L25.8887 40.6611V40.6602L25.8477 40.6191H25.8467L25.8125 40.584H25.7705L25.4668 40.2803V40.2383L25.4316 40.2041V40.2031L25.3906 40.1621H25.3896L25.3486 40.1211L25.3428 40.1143V40.0723L25.3076 40.0371L25.3008 40.0312V39.9893L25.2598 39.9482V39.9072L25.2178 39.8652V39.7822L25.1826 39.7471L25.1768 39.7402V39.6162L25.1406 39.5811L25.1348 39.5742V39.1592L25.0996 39.124L25.0938 39.1172V37.3555L25.0996 37.3496L25.126 37.3223L25.1055 37.3018H24.9805L24.9746 37.2959L24.9395 37.2598H24.8975L24.8564 37.2188H24.8145L24.8086 37.2129L24.7734 37.1768H24.7314L24.7256 37.1709L24.6895 37.1357H24.6484L24.6064 37.0938H24.5654L24.5596 37.0879L24.5176 37.0469L24.4824 37.0107H24.4404L24.3926 36.9629V36.9619L24.3516 36.9219L24.3105 36.8809V36.8799H24.3096L24.2686 36.8389L24.2275 36.7969H24.2266L24.0137 36.584V36.542L23.9775 36.5068L23.9365 36.4648L23.9307 36.459V36.417L23.8945 36.3818L23.8467 36.334V36.292L23.8057 36.251V36.209L23.7705 36.1738L23.7637 36.168V36.085L23.7227 36.0439V35.9609L23.6807 35.9189V35.7109L23.6396 35.6699V30.917L23.6455 30.9102L23.6807 30.875V30.584L23.7227 30.542V30.377L23.7285 30.3701L23.7637 30.335V30.252L23.7705 30.2461L23.8057 30.21V30.127L23.8467 30.0859V30.0029L23.8535 29.9971L23.8887 29.9609V29.9199L23.8945 29.9131L23.9307 29.877V29.8369L23.9365 29.8301L23.9717 29.7949V29.7539L23.9775 29.7471L24.0137 29.7109V29.6699L24.0547 29.6289V29.5869L24.0605 29.5811L24.1025 29.54L24.1436 29.498L24.1797 29.4619V29.4209L24.6904 28.9102H24.7324L24.7666 28.875H24.7676L24.8086 28.834L24.8145 28.8271H24.8564L24.8916 28.792L24.9336 28.751L24.9395 28.7441H24.9805L25.0166 28.709L25.0225 28.7031H25.0635L25.1055 28.6611H25.1465L25.1826 28.626L25.1885 28.6201H25.2598V28.5898L25.3008 28.5488V28.4658L25.3076 28.46L25.3428 28.4238V28.3828L25.3486 28.377L25.3838 28.3408V28.2578L25.3906 28.252L25.4258 28.2158V28.1338L25.4316 28.127L25.4668 28.0918V28.0498L25.4736 28.0439L25.5088 28.0088V27.9258L25.5508 27.8838V27.8428L25.5566 27.8369L25.5918 27.8008V27.7178L25.6338 27.6758V27.5938L25.6396 27.5869L25.6748 27.5518V27.5098L25.7168 27.4678V27.3857L25.7227 27.3799L25.7578 27.3438V27.3027L25.7998 27.2607V27.1777L25.8057 27.1719L25.8408 27.1357V27.0947L25.8477 27.0889L25.8828 27.0527V26.9697L25.9238 26.9287V26.8457L25.9307 26.8398L25.9658 26.8037V26.7627L26.0068 26.7217V26.6377L26.0137 26.6318L26.0488 26.5957V26.5547L26.0908 26.5127V26.4297L26.1318 26.3887V26.3467L26.1738 26.3047V26.2227L26.1797 26.2168L26.2148 26.1807V26.1396L26.2207 26.1328L26.2568 26.0967V26.0146L26.2627 26.0088L26.2979 25.9727V25.8896L26.3398 25.8477V25.8066L26.3809 25.7656V25.6826L26.4229 25.6406V25.5996L26.4287 25.5928L26.4639 25.5576V25.4746L26.4707 25.4688L26.5059 25.4326V25.3916L26.5469 25.3506V25.2666L26.5537 25.2607L26.5889 25.2256V25.1426L26.5947 25.1357L26.6309 25.0996V25.0596L26.6367 25.0527L26.6719 25.0176V24.9346L26.7139 24.8926V24.8516L26.7197 24.8457L26.7549 24.8096V24.7266L26.7969 24.6846V24.6436L26.8379 24.6025V24.5195L26.8438 24.5127L26.8799 24.4766V24.4365L26.8857 24.4297L26.9209 24.3945V24.3115L26.9277 24.3057L26.9629 24.2695V24.1865L27.0039 24.1455V24.1035L27.0107 24.0977L27.0459 24.0625V23.9795L27.0518 23.9727L27.0869 23.9375V23.8965L27.1289 23.8545V23.7715L27.1709 23.7295V23.6885L27.1768 23.6826L27.2119 23.6465V23.5635L27.2539 23.5215V23.4395L27.2598 23.4326L27.2949 23.3975V23.3564L27.3008 23.3496L27.3369 23.3135V23.2725L27.3779 23.2314V23.1895L27.3838 23.1836L27.4258 23.1426L27.4609 23.1064V23.0654L27.4678 23.0596L27.5088 23.0176L27.5918 22.9346L27.6338 22.8936V22.8926L27.8887 22.6377H27.9297L27.9658 22.6025L28.0068 22.5605L28.0137 22.5547H28.0547L28.0967 22.5127H28.1387L28.1797 22.4717H28.2627L28.2979 22.4365L28.3037 22.4297H28.4287L28.4639 22.3945L28.4707 22.3887H28.7607L28.7969 22.3535L28.8027 22.3467H37.0576V19.1191L37.0635 19.1123L37.1045 19.0713L37.1113 19.0654H43.9414L43.9824 19.1064ZM26.7676 30.7793L26.7607 30.7852L26.7256 30.8203H26.6006L26.5947 30.8262V30.8271L26.5596 30.8623H26.4766L26.4707 30.8682H26.4697L26.4355 30.9033H26.3516L26.3457 30.9102L26.3096 30.9453H26.2686L26.1855 31.0283H26.1436L26.1377 31.0342L26.0967 31.0762L26.0605 31.1113H26.0195L25.9307 31.2002H25.9297L25.8887 31.2422L25.8467 31.2832V31.2842L25.7578 31.373V31.4141L25.7227 31.4502L25.6807 31.4912L25.6748 31.4971V31.5391L25.6328 31.5811V31.6221L25.5977 31.6572L25.5566 31.6992L25.5498 31.7051V31.7881L25.5146 31.8232V31.8242L25.5088 31.8301V31.9131L25.4736 31.9482H25.4727L25.4668 31.9541V32.0371L25.4316 32.0732L25.4258 32.0791V32.7607L25.4316 32.7666V32.7676L25.4668 32.8027V32.9268L25.4727 32.9336H25.4736L25.5088 32.9688V33.0518L25.5498 33.0928V33.1348L25.5566 33.1406L25.5918 33.1758V33.2178L25.5977 33.2236V33.2246L25.6328 33.2588V33.3008L25.6748 33.3428V33.3838L25.6807 33.3906L25.7227 33.4316L25.7637 33.4736L25.7998 33.5088V33.5498L25.8057 33.5566L25.9297 33.6807H25.9307L25.9717 33.7227L25.9775 33.7285H26.0195L26.0547 33.7637V33.7646L26.0967 33.8057L26.1377 33.8477L26.1436 33.8535H26.1855L26.2686 33.9365H26.3096L26.3457 33.9717L26.3516 33.9775H26.4346L26.4697 34.0137H26.4707L26.4766 34.0195H26.5596L26.5947 34.0547L26.6006 34.0615H26.6846L26.7256 34.1025H27.4072L27.4131 34.0967H27.4141L27.4482 34.0615H27.5732L27.6152 34.0195H27.6572L27.6631 34.0137L27.6982 33.9775H27.7812L27.7871 33.9717L27.8291 33.9307L27.8643 33.8945H27.9062L27.9473 33.8535H27.9893L28.0781 33.7646V33.7637L28.1143 33.7285H28.1553L28.375 33.5088V33.4668L28.4102 33.4316H28.4111L28.4521 33.3906L28.458 33.3838V33.3428L28.4941 33.3076L28.5352 33.2656L28.541 33.2598V33.2178L28.5771 33.1826L28.583 33.1768V33.1348L28.624 33.0938V33.0107L28.666 32.9688V32.8857L28.708 32.8438V32.6768L28.7432 32.6426L28.749 32.6367V32.2451L28.708 32.2041V31.9961L28.7012 31.9902L28.666 31.9541V31.8711L28.624 31.8291V31.7471L28.6182 31.7402L28.583 31.7051V31.6641L28.5771 31.6572L28.541 31.6211V31.5811L28.5352 31.5742L28.458 31.4971V31.4561L28.4521 31.4502L28.4111 31.4082H28.4102L28.3691 31.3672V31.3662H28.3682L28.2861 31.2842V31.2832L28.2441 31.2422L28.2031 31.2002L28.1611 31.1592L28.1201 31.1172L28.0781 31.0762L28.0723 31.0703H28.0312L27.9473 30.9863H27.9053L27.8711 30.9512H27.8701L27.8643 30.9453H27.8232L27.7871 30.9102L27.7812 30.9033H27.7393L27.6982 30.8623H27.6152L27.5801 30.8271V30.8262L27.5732 30.8203H27.4072L27.3662 30.7793H26.7676ZM40.2148 21.6934V26.2393L40.2266 26.251H42.9443L42.9854 26.21H43.2764L43.3184 26.168H43.4844L43.5254 26.127H43.6094L43.6152 26.1201L43.6504 26.085H43.7334L43.7393 26.0791H43.7402L43.7744 26.0439H43.8584L43.8643 26.0371L43.9004 26.002H43.9414L43.9834 25.96H44.0244L44.0303 25.9541L44.0664 25.9189H44.1074L44.1904 25.8359H44.2324L44.2383 25.8301L44.2793 25.7881H44.2803L44.3154 25.7529H44.3564L44.3633 25.7471V25.7461L44.4043 25.7051L44.4453 25.6631L44.4463 25.6641V25.6631L44.4814 25.6279H44.5225L44.5293 25.6221L44.5703 25.5801L44.6123 25.5391L44.6533 25.4971L44.6953 25.4561L44.7363 25.4141H44.7373L44.7363 25.4131L44.7783 25.373L44.8193 25.3311H44.8203L44.8613 25.29V25.2891L44.8672 25.2832V25.2422L44.9033 25.207V25.2061L44.9502 25.1592V25.1172L44.9863 25.082L45.0273 25.04L45.0332 25.0342V24.9932L45.0752 24.9512V24.9092L45.1104 24.874L45.1172 24.8682V24.7842L45.1523 24.75L45.1582 24.7432V24.7021L45.1934 24.667V24.666L45.2002 24.6602V24.5762L45.2354 24.542L45.2412 24.5361V24.4111L45.2764 24.376H45.2773L45.2832 24.3691V23.6875L45.2773 23.6816H45.2764L45.2412 23.6455V23.4795L45.2002 23.4385V23.3135L45.1934 23.3076L45.1582 23.2725V23.2305L45.1172 23.1895V23.1064L45.0752 23.0645V23.0234L45.0693 23.0166L45.0332 22.9805V22.9395L44.9502 22.8564V22.8154L44.9443 22.8096V22.8086H44.9434L44.9033 22.7676L44.8672 22.7314V22.6904L44.8613 22.6846L44.8203 22.6426H44.8193L44.7842 22.6074V22.5664L44.7783 22.5596L44.7363 22.5186L44.6953 22.4766L44.6533 22.4355L44.6123 22.3936L44.5703 22.3525L44.5293 22.3105L44.4873 22.2695L44.4463 22.2275L44.4395 22.2217H44.3984L44.3633 22.1865V22.1855L44.3213 22.1445L44.2803 22.1025H44.2793L44.2734 22.0967H44.2324L44.1963 22.0615L44.1904 22.0557H44.1494L44.0664 21.9727H44.0244L43.9893 21.9365L43.9824 21.9307H43.9004L43.8643 21.8955L43.8584 21.8887H43.8164L43.7754 21.8477H43.6924L43.6562 21.8125L43.6504 21.8057H43.5254L43.4844 21.7646H43.3184L43.2764 21.7227H42.8613L42.8262 21.6875L42.8193 21.6816H42.6367L42.6299 21.6875L42.6025 21.7139L42.5703 21.6816H40.4766L40.4697 21.6875L40.4346 21.7227H40.3691L40.333 21.6875L40.3271 21.6816H40.2266L40.2148 21.6934Z" fill="white"/>
</svg>
